<svg width="155" height="18" viewBox="0 0 155 18" fill="none" xmlns="http://www.w3.org/2000/svg">
<path d="M4.6875 17.2188C3.95833 17.2188 3.19271 17.1302 2.39062 16.9531C1.59896 16.7656 0.942708 16.526 0.421875 16.2344L0.296875 12.8125L1.53125 12.7188L2.28125 15.0781C3.09375 15.599 4.01042 15.8594 5.03125 15.8594C5.85417 15.8594 6.49479 15.6771 6.95312 15.3125C7.41146 14.9375 7.64062 14.4219 7.64062 13.7656C7.64062 13.1823 7.46354 12.7031 7.10938 12.3281C6.76562 11.9427 6.3125 11.6146 5.75 11.3438C5.19792 11.0729 4.60938 10.8073 3.98438 10.5469C3.36979 10.276 2.78125 9.96354 2.21875 9.60938C1.66667 9.25521 1.21354 8.81771 0.859375 8.29688C0.515625 7.76562 0.34375 7.09375 0.34375 6.28125C0.34375 5.01042 0.859375 3.98438 1.89062 3.20312C2.93229 2.42188 4.28125 2.03125 5.9375 2.03125C6.5625 2.03125 7.18229 2.08333 7.79688 2.1875C8.42188 2.28125 8.95833 2.43229 9.40625 2.64062L9.625 5.95312L8.375 6.04688L7.64062 3.8125C7.08854 3.5 6.42708 3.34375 5.65625 3.34375C4.86458 3.34375 4.22396 3.54167 3.73438 3.9375C3.24479 4.32292 3 4.84375 3 5.5C3 6.08333 3.17708 6.57292 3.53125 6.96875C3.88542 7.35417 4.34375 7.69271 4.90625 7.98438C5.46875 8.27604 6.0625 8.55729 6.6875 8.82812C7.3125 9.09896 7.90625 9.41146 8.46875 9.76562C9.03125 10.1094 9.48958 10.5365 9.84375 11.0469C10.1979 11.5573 10.375 12.1979 10.375 12.9688C10.375 14.2083 9.84375 15.2292 8.78125 16.0312C7.72917 16.8229 6.36458 17.2188 4.6875 17.2188ZM23.0156 15.0781L24.6094 15.4844V16.375L21.0156 17.2656L20.5625 16.9531L20.5938 15.3281L20.5156 15.2969C20.026 16.0156 19.5208 16.5104 19 16.7812C18.4792 17.0521 17.9219 17.1875 17.3281 17.1875C16.1719 17.1875 15.2188 16.8385 14.4688 16.1406C13.7188 15.4323 13.3438 14.3646 13.3438 12.9375V10.7812C13.3438 10.3854 13.3333 9.97917 13.3125 9.5625C13.2917 9.14583 13.2604 8.71875 13.2188 8.28125L11.5156 7.92188V7L15.2969 6L15.8281 6.42188C15.7865 6.92188 15.7552 7.48438 15.7344 8.10938C15.724 8.73438 15.7188 9.38542 15.7188 10.0625L15.7031 12.625C15.7031 13.6042 15.9219 14.3073 16.3594 14.7344C16.8073 15.151 17.3958 15.3594 18.125 15.3594C18.5312 15.3594 18.9479 15.25 19.375 15.0312C19.8125 14.8021 20.1927 14.4323 20.5156 13.9219V11.1406C20.5156 10.0365 20.474 9.08333 20.3906 8.28125L18.5625 7.92188V7L22.4531 6L22.8906 6.375C22.8698 7 22.8542 7.58333 22.8438 8.125C22.8438 8.65625 22.8438 9.27604 22.8438 9.98438V11.8438C22.8438 12.6042 22.8594 13.2552 22.8906 13.7969C22.9323 14.3385 22.974 14.7656 23.0156 15.0781ZM25.7969 17L25.7188 16.0312L27.2812 15.625C27.3021 15.5 27.3229 15.2344 27.3438 14.8281C27.375 14.4115 27.3958 13.8073 27.4062 13.0156L27.4219 11.0938C27.4219 10.5521 27.401 10.0365 27.3594 9.54688C27.3177 9.05729 27.2656 8.63542 27.2031 8.28125L25.5938 7.92188V7L29.3125 6L29.8281 6.42188L29.6875 7.78125L29.75 7.79688C30.8542 6.56771 32.0677 5.95312 33.3906 5.95312C34.349 5.95312 35.1927 6.32292 35.9219 7.0625C36.6615 7.79167 37.0312 8.88542 37.0312 10.3438V13.0469C37.0312 13.6302 37.0417 14.1719 37.0625 14.6719C37.0938 15.1615 37.1354 15.4792 37.1875 15.625L38.7344 16.0312L38.6562 17H33.1875L33.1406 16.0312L34.5938 15.625C34.6146 15.4375 34.6354 15.1354 34.6562 14.7188C34.6875 14.3021 34.7031 13.7865 34.7031 13.1719V10.6562C34.7031 9.60417 34.4531 8.85938 33.9531 8.42188C33.4531 7.97396 32.9062 7.75 32.3125 7.75C31.2708 7.75 30.4167 8.21354 29.75 9.14062V12.875C29.75 13.5833 29.7604 14.1823 29.7812 14.6719C29.8125 15.1615 29.8438 15.4792 29.875 15.625L31.4375 16.0312L31.3594 17H25.7969ZM44.0938 17.1875C43.4583 17.1875 42.8177 17.1198 42.1719 16.9844C41.526 16.849 40.9844 16.6562 40.5469 16.4062L40.4219 13.6406H41.7656L42.2969 15.4531C42.849 15.8385 43.5104 16.0312 44.2812 16.0312C44.8333 16.0312 45.2708 15.9062 45.5938 15.6562C45.9167 15.3958 46.0781 15.0521 46.0781 14.625C46.0781 14.1979 45.9219 13.8333 45.6094 13.5312C45.3073 13.2292 44.6979 12.8906 43.7812 12.5156C42.5833 12.026 41.7396 11.5365 41.25 11.0469C40.7604 10.5469 40.5156 9.91146 40.5156 9.14062C40.5156 8.21354 40.9323 7.45312 41.7656 6.85938C42.599 6.25521 43.6771 5.95312 45 5.95312C46.0729 5.95312 46.9948 6.11979 47.7656 6.45312L48.0312 9.14062H46.7031L46.125 7.40625C45.75 7.1875 45.3073 7.07812 44.7969 7.07812C44.2344 7.07812 43.7865 7.21354 43.4531 7.48438C43.1198 7.74479 42.9531 8.07812 42.9531 8.48438C42.9531 8.94271 43.1354 9.32292 43.5 9.625C43.875 9.92708 44.5521 10.2917 45.5312 10.7188C46.6354 11.1979 47.4115 11.6875 47.8594 12.1875C48.3177 12.6771 48.5469 13.2812 48.5469 14C48.5469 14.9479 48.1302 15.7188 47.2969 16.3125C46.4635 16.8958 45.3958 17.1875 44.0938 17.1875ZM55.6562 17.1875C54.6562 17.1875 53.7552 16.9635 52.9531 16.5156C52.1615 16.0677 51.5312 15.4375 51.0625 14.625C50.6042 13.8125 50.375 12.8594 50.375 11.7656C50.375 10.5885 50.625 9.5625 51.125 8.6875C51.625 7.8125 52.276 7.13542 53.0781 6.65625C53.8906 6.17708 54.7604 5.94271 55.6875 5.95312C57.0729 5.96354 58.1354 6.41146 58.875 7.29688C59.625 8.17188 60 9.35938 60 10.8594V11.3594H52.4219V10.1875H58.0938L57.7656 10.6094V9.98438C57.7656 9.06771 57.5625 8.35938 57.1562 7.85938C56.75 7.35938 56.1927 7.10938 55.4844 7.10938C54.7969 7.10938 54.1875 7.41146 53.6562 8.01562C53.1354 8.60938 52.875 9.51042 52.875 10.7188V11.0938C52.875 12.3958 53.2031 13.4219 53.8594 14.1719C54.526 14.9219 55.3958 15.2969 56.4688 15.2969C57.0521 15.2969 57.5729 15.1875 58.0312 14.9688C58.4896 14.75 58.9375 14.375 59.375 13.8438L60.0469 14.4688C59.5677 15.3854 58.9531 16.0677 58.2031 16.5156C57.4531 16.9635 56.6042 17.1875 55.6562 17.1875ZM69.75 15.2812C69.4479 15.8854 69.0052 16.3542 68.4219 16.6875C67.8385 17.0208 67.2083 17.1875 66.5312 17.1875C65.4792 17.1875 64.6094 16.875 63.9219 16.25C63.2448 15.625 62.9062 14.6719 62.9062 13.3906L62.9688 7.53125H61.2188V6.92188L64.7812 3.84375H65.375L65.3281 6.92188L65.2812 13.0469C65.2812 14.6198 65.974 15.4062 67.3594 15.4062C68.0677 15.4062 68.6979 15.1458 69.25 14.625L69.75 15.2812ZM64.2344 7.53125V6.17188H69.0156V7.53125H64.2344ZM83.7188 17.2188C82.2188 17.2188 80.8646 16.9375 79.6562 16.375C78.4479 15.8125 77.4896 14.9792 76.7812 13.875C76.0729 12.7708 75.7188 11.4062 75.7188 9.78125C75.7188 8.3125 76.0573 7 76.7344 5.84375C77.4219 4.67708 78.3906 3.75521 79.6406 3.07812C80.901 2.40104 82.3906 2.0625 84.1094 2.0625C84.8177 2.0625 85.5573 2.13542 86.3281 2.28125C87.1094 2.41667 87.7865 2.60938 88.3594 2.85938L88.5312 6.42188L87.2812 6.53125L86.5 4.0625C86.1771 3.86458 85.776 3.71875 85.2969 3.625C84.8177 3.52083 84.349 3.46875 83.8906 3.46875C82.724 3.46875 81.7656 3.72917 81.0156 4.25C80.2656 4.76042 79.7083 5.45833 79.3438 6.34375C78.9792 7.22917 78.7969 8.21875 78.7969 9.3125C78.7969 10.6979 79.0312 11.875 79.5 12.8438C79.9688 13.8021 80.6042 14.5312 81.4062 15.0312C82.2083 15.5312 83.1042 15.7812 84.0938 15.7812C85.1146 15.7812 85.9896 15.5365 86.7188 15.0469L87.75 12.7188L89.0781 12.875L88.3594 16.0781C87.8073 16.3906 87.1198 16.6615 86.2969 16.8906C85.474 17.1094 84.6146 17.2188 83.7188 17.2188ZM90.2812 17L90.2188 16L91.8906 15.625C91.9115 15.5417 91.9323 15.3021 91.9531 14.9062C91.9844 14.5 92.0052 13.8698 92.0156 13.0156V11.2344C92.0156 10.026 91.9479 9.04167 91.8125 8.28125L90.1406 7.92188V7L94.0469 6L94.5312 6.40625C94.4792 6.91667 94.4375 7.42708 94.4062 7.9375C94.3854 8.44792 94.375 9.03646 94.375 9.70312V12.875C94.375 13.5729 94.3854 14.1771 94.4062 14.6875C94.4375 15.1875 94.4792 15.5 94.5312 15.625L96.2031 16L96.125 17H90.2812ZM93.2344 3.42188C92.724 3.42188 92.3073 3.26042 91.9844 2.9375C91.6615 2.61458 91.5 2.22396 91.5 1.76562C91.5 1.30729 91.6615 0.916667 91.9844 0.59375C92.3073 0.270833 92.724 0.109375 93.2344 0.109375C93.7344 0.109375 94.1354 0.270833 94.4375 0.59375C94.75 0.916667 94.9062 1.30729 94.9062 1.76562C94.9062 2.22396 94.75 2.61458 94.4375 2.9375C94.1354 3.26042 93.7344 3.42188 93.2344 3.42188ZM97.3281 17L97.25 16.0312L98.8125 15.625C98.8333 15.5 98.8542 15.2344 98.875 14.8281C98.9062 14.4115 98.9271 13.8073 98.9375 13.0156L98.9531 11.0938C98.9531 10.5521 98.9323 10.0365 98.8906 9.54688C98.849 9.05729 98.7969 8.63542 98.7344 8.28125L97.125 7.92188V7L100.844 6L101.359 6.42188L101.219 7.78125L101.281 7.79688C102.385 6.56771 103.599 5.95312 104.922 5.95312C105.88 5.95312 106.724 6.32292 107.453 7.0625C108.193 7.79167 108.562 8.88542 108.562 10.3438V13.0469C108.562 13.6302 108.573 14.1719 108.594 14.6719C108.625 15.1615 108.667 15.4792 108.719 15.625L110.266 16.0312L110.188 17H104.719L104.672 16.0312L106.125 15.625C106.146 15.4375 106.167 15.1354 106.188 14.7188C106.219 14.3021 106.234 13.7865 106.234 13.1719V10.6562C106.234 9.60417 105.984 8.85938 105.484 8.42188C104.984 7.97396 104.438 7.75 103.844 7.75C102.802 7.75 101.948 8.21354 101.281 9.14062V12.875C101.281 13.5833 101.292 14.1823 101.312 14.6719C101.344 15.1615 101.375 15.4792 101.406 15.625L102.969 16.0312L102.891 17H97.3281ZM117.031 17.1875C116.031 17.1875 115.13 16.9635 114.328 16.5156C113.536 16.0677 112.906 15.4375 112.438 14.625C111.979 13.8125 111.75 12.8594 111.75 11.7656C111.75 10.5885 112 9.5625 112.5 8.6875C113 7.8125 113.651 7.13542 114.453 6.65625C115.266 6.17708 116.135 5.94271 117.062 5.95312C118.448 5.96354 119.51 6.41146 120.25 7.29688C121 8.17188 121.375 9.35938 121.375 10.8594V11.3594H113.797V10.1875H119.469L119.141 10.6094V9.98438C119.141 9.06771 118.938 8.35938 118.531 7.85938C118.125 7.35938 117.568 7.10938 116.859 7.10938C116.172 7.10938 115.562 7.41146 115.031 8.01562C114.51 8.60938 114.25 9.51042 114.25 10.7188V11.0938C114.25 12.3958 114.578 13.4219 115.234 14.1719C115.901 14.9219 116.771 15.2969 117.844 15.2969C118.427 15.2969 118.948 15.1875 119.406 14.9688C119.865 14.75 120.312 14.375 120.75 13.8438L121.422 14.4688C120.943 15.3854 120.328 16.0677 119.578 16.5156C118.828 16.9635 117.979 17.1875 117.031 17.1875ZM122.938 17L122.875 16.0312L124.422 15.625C124.443 15.5 124.464 15.2396 124.484 14.8438C124.516 14.4479 124.536 13.8385 124.547 13.0156L124.578 11.0938C124.578 10.5625 124.552 10.0521 124.5 9.5625C124.458 9.0625 124.406 8.63542 124.344 8.28125L122.75 7.92188V7L126.453 6L126.984 6.42188L126.828 7.79688L126.906 7.82812C127.427 7.16146 127.969 6.68229 128.531 6.39062C129.104 6.09896 129.693 5.95312 130.297 5.95312C130.901 5.95312 131.479 6.11458 132.031 6.4375C132.594 6.76042 133.052 7.25 133.406 7.90625C133.771 8.5625 133.953 9.39583 133.953 10.4062L133.984 13.0469C133.984 13.6302 133.995 14.1667 134.016 14.6562C134.047 15.1354 134.083 15.4583 134.125 15.625L135.578 16.0312L135.516 17H130.266L130.188 16.0312L131.547 15.625C131.568 15.4375 131.589 15.1354 131.609 14.7188C131.63 14.3021 131.641 13.7865 131.641 13.1719L131.625 10.5312C131.625 9.53125 131.396 8.81771 130.938 8.39062C130.49 7.96354 129.964 7.75 129.359 7.75C128.339 7.75 127.521 8.21354 126.906 9.14062V12.875C126.906 13.5729 126.917 14.1719 126.938 14.6719C126.958 15.1615 126.99 15.4792 127.031 15.625L128.484 16.0312L128.406 17H122.938ZM137.266 17L137.188 16.0312L138.562 15.625C138.594 15.4375 138.62 15.1354 138.641 14.7188C138.672 14.3021 138.688 13.7865 138.688 13.1719L138.672 10.6406C138.672 9.58854 138.427 8.84375 137.938 8.40625C137.448 7.96875 136.917 7.75 136.344 7.75C135.25 7.75 134.37 8.25521 133.703 9.26562L133.156 8.3125C134.302 6.73958 135.635 5.95312 137.156 5.95312C138.271 5.95312 139.188 6.34375 139.906 7.125C140.635 7.89583 141 8.94792 141 10.2812V13.0469C141 13.6302 141.01 14.1667 141.031 14.6562C141.062 15.1354 141.104 15.4583 141.156 15.625L142.703 16.0312L142.625 17H137.266ZM148.031 17.1875C147.312 17.1875 146.688 17.0469 146.156 16.7656C145.635 16.474 145.229 16.1094 144.938 15.6719C144.656 15.2344 144.516 14.8021 144.516 14.375C144.516 13.7917 144.698 13.3125 145.062 12.9375C145.427 12.5625 146.021 12.2448 146.844 11.9844L150.703 10.7344V9.57812C150.703 8.99479 150.438 8.48958 149.906 8.0625C149.385 7.625 148.766 7.40625 148.047 7.40625C147.661 7.40625 147.401 7.48958 147.266 7.65625C147.13 7.8125 147.047 8.11979 147.016 8.57812L146.953 9.78125C146.276 9.9375 145.708 9.91667 145.25 9.71875C144.792 9.52083 144.562 9.19792 144.562 8.75C144.562 8.375 144.792 7.98958 145.25 7.59375C145.719 7.1875 146.281 6.83333 146.938 6.53125C147.594 6.22917 148.208 6.03646 148.781 5.95312C150.094 5.95312 151.146 6.28646 151.938 6.95312C152.729 7.60938 153.13 8.47917 153.141 9.5625L153.062 13.5156C153.062 13.8802 153.073 14.2135 153.094 14.5156C153.125 14.8073 153.177 15.026 153.25 15.1719L154.844 15.4844V16.3594L153.5 16.875C153.24 16.9688 153 17.0417 152.781 17.0938C152.573 17.1562 152.385 17.1875 152.219 17.1875C151.656 17.1875 151.276 16.8958 151.078 16.3125L150.766 15.25L151.188 15.2969C150.115 16.5573 149.062 17.1875 148.031 17.1875ZM148.906 15.4844C149.552 15.4844 150.151 15.1823 150.703 14.5781V11.9844L148.25 12.5938C147.5 12.7812 147.125 13.2083 147.125 13.875C147.125 14.2917 147.297 14.6667 147.641 15C147.995 15.3229 148.417 15.4844 148.906 15.4844Z" fill="white"/>
</svg>
