<svg width="246" height="25" viewBox="0 0 246 25" fill="none" xmlns="http://www.w3.org/2000/svg">
<path d="M13.112 3.136C11.5547 2.47467 10.008 2.144 8.472 2.144C5.35733 2.144 3.8 3.296 3.8 5.6C3.8 6.60267 4.152 7.54133 4.856 8.416C5.56 9.26933 6.41333 10.0373 7.416 10.72C8.41867 11.3813 9.42133 12.064 10.424 12.768C11.4267 13.472 12.28 14.3147 12.984 15.296C13.688 16.2773 14.04 17.344 14.04 18.496C14.04 20.4373 13.3893 21.9093 12.088 22.912C10.7867 23.8933 8.984 24.384 6.68 24.384C4.39733 24.384 2.44533 23.7973 0.824 22.624L1.592 21.472C3.128 22.4747 4.81333 22.976 6.648 22.976C8.48267 22.976 9.89067 22.6133 10.872 21.888C11.8533 21.1413 12.344 20.0747 12.344 18.688C12.344 17.728 11.992 16.8213 11.288 15.968C10.584 15.0933 9.73067 14.3147 8.728 13.632C7.72533 12.928 6.72267 12.2133 5.72 11.488C4.71733 10.7627 3.864 9.89867 3.16 8.896C2.456 7.89333 2.104 6.816 2.104 5.664C2.104 4.14933 2.65867 2.95466 3.768 2.08C4.89867 1.184 6.41333 0.735998 8.312 0.735998C10.232 0.735998 12.0133 1.12 13.656 1.888L13.112 3.136ZM35.124 21.856C33.716 23.4987 31.572 24.32 28.692 24.32C25.812 24.32 23.668 23.4987 22.26 21.856C20.852 20.2133 20.148 17.9413 20.148 15.04V3.232H21.62V15.04C21.62 20.352 23.9773 23.008 28.692 23.008C33.4067 23.008 35.764 20.352 35.764 15.04V3.232H37.236V15.04C37.236 17.9413 36.532 20.2133 35.124 21.856ZM44.715 24V3.104H45.419L59.051 18.784C59.5417 19.3387 59.9897 19.8933 60.395 20.448C60.8217 20.9813 61.0457 21.2587 61.067 21.28C61.0243 20.768 61.003 19.7653 61.003 18.272V3.232H62.475V24.128H61.771L47.883 8.192L46.123 6.048C46.1657 6.47467 46.187 7.47733 46.187 9.056V24H44.715ZM74.3445 4.128C73.1925 4.128 72.2538 4.40533 71.5285 4.96C70.8032 5.51467 70.4405 6.29333 70.4405 7.296C70.4405 8.448 70.9205 9.48267 71.8805 10.4C72.5632 11.0613 73.4378 11.7653 74.5045 12.512C75.5925 13.2373 76.3392 13.76 76.7445 14.08C77.1498 14.4 77.6405 14.8373 78.2165 15.392C79.2618 16.4373 79.7845 17.6427 79.7845 19.008C79.7845 20.7787 79.1872 22.1227 77.9925 23.04C76.8192 23.936 75.1658 24.384 73.0325 24.384C70.9205 24.384 69.1498 23.8293 67.7205 22.72L68.4885 21.6C69.9392 22.5813 71.4752 23.072 73.0965 23.072C74.7178 23.072 75.9765 22.7307 76.8725 22.048C77.7898 21.3653 78.2485 20.4053 78.2485 19.168C78.2485 18.1013 77.7898 17.12 76.8725 16.224C76.2325 15.584 75.3685 14.8907 74.2805 14.144C73.2138 13.3973 72.4672 12.864 72.0405 12.544C71.6138 12.2027 71.1125 11.7547 70.5365 11.2C69.4485 10.112 68.9045 8.85333 68.9045 7.424C68.9045 5.99467 69.4058 4.87467 70.4085 4.064C71.4325 3.25333 72.8405 2.848 74.6325 2.848C76.4245 2.848 78.0352 3.2 79.4645 3.904L78.9205 5.088C77.5978 4.448 76.0725 4.128 74.3445 4.128ZM85.6838 24V3.232H95.3798V4.512H87.1558V12.064H94.5798V13.312H87.1558V22.656H95.6998V24H85.6838ZM105.302 4.544H98.262V3.232H113.782V4.544H106.742V24H105.302V4.544ZM140.853 24.384C137.525 24.384 134.666 23.2533 132.277 20.992C129.887 18.7093 128.693 15.904 128.693 12.576C128.693 9.22667 129.738 6.42133 131.829 4.16C133.919 1.87733 136.597 0.735998 139.861 0.735998C142.421 0.735998 145.013 1.16267 147.637 2.016L147.221 3.296C144.661 2.528 142.207 2.144 139.861 2.144C137.066 2.144 134.783 3.14667 133.013 5.152C131.242 7.15733 130.357 9.61067 130.357 12.512C130.357 15.4133 131.381 17.888 133.429 19.936C135.498 21.9627 137.973 22.976 140.853 22.976C143.37 22.976 145.546 22.592 147.381 21.824L147.861 22.912C147.05 23.3813 145.983 23.744 144.661 24C143.359 24.256 142.09 24.384 140.853 24.384ZM153.496 24V3.232H154.968V24H153.496ZM162.653 24V3.104H163.357L176.989 18.784C177.479 19.3387 177.927 19.8933 178.333 20.448C178.759 20.9813 178.983 21.2587 179.005 21.28C178.962 20.768 178.941 19.7653 178.941 18.272V3.232H180.413V24.128H179.709L165.821 8.192L164.061 6.048C164.103 6.47467 164.125 7.47733 164.125 9.056V24H162.653ZM188.09 24V3.232H197.786V4.512H189.562V12.064H196.986V13.312H189.562V22.656H198.106V24H188.09ZM213.628 22.912H212.764L206.716 8.224C206.46 7.648 206.204 6.976 205.948 6.208C205.948 6.22933 205.927 6.34667 205.884 6.56C205.863 6.77333 205.831 7.06133 205.788 7.424C205.746 7.76533 205.703 8.05333 205.66 8.288L203.26 24H201.82L205.212 3.104H206.076L212.54 18.432C213.052 19.712 213.308 20.384 213.308 20.448C213.458 20 213.746 19.3387 214.172 18.464L221.372 3.104H222.236L225.404 24H223.868L221.596 8.224C221.447 7.17867 221.372 6.48533 221.372 6.144L220.444 8.256L213.628 22.912ZM231.927 16.8L228.951 24H227.447L236.151 3.104H237.015L245.783 24H244.151L241.143 16.8H231.927ZM236.503 5.472C236.183 6.432 235.895 7.232 235.639 7.872L232.439 15.552H240.631L237.463 7.904C236.972 6.70933 236.652 5.89867 236.503 5.472Z" fill="white"/>
</svg>
