<svg width="466" height="33" viewBox="0 0 466 33" fill="none" xmlns="http://www.w3.org/2000/svg">
<path d="M23.376 4.208V11.504C23.376 13.168 23.1947 14.5333 22.832 15.6C22.4907 16.6453 22.128 17.168 21.744 17.168C21.36 17.1893 21.0827 16.8053 20.912 16.016C20.7413 15.2053 20.656 14.2133 20.656 13.04V4.784C20.656 4.272 20.6133 3.84533 20.528 3.504C20.4427 3.16267 20.2613 2.896 19.984 2.704C19.6213 2.448 19.1947 2.24533 18.704 2.096C18.2347 1.94667 17.776 1.82933 17.328 1.744C17.1573 1.72267 17.04 1.63733 16.976 1.488C16.912 1.33867 16.9013 1.18933 16.944 1.04C16.9653 0.890665 17.04 0.762665 17.168 0.655998C17.296 0.527999 17.4773 0.463999 17.712 0.463999C18.5227 0.485332 19.472 0.570665 20.56 0.719999C21.648 0.847999 22.576 1.02933 23.344 1.264C23.472 1.328 23.5787 1.456 23.664 1.648C23.7493 1.81867 23.76 2.02133 23.696 2.256C23.5893 2.576 23.504 2.90667 23.44 3.248C23.3973 3.568 23.376 3.888 23.376 4.208ZM11.888 30C11.44 30 11.0133 29.9787 10.608 29.936C10.224 29.9147 9.872 29.8293 9.552 29.68C9.25333 29.5307 9.01867 29.3067 8.848 29.008C8.67733 28.7307 8.592 28.336 8.592 27.824V25.648C8.592 25.2 8.44267 24.8907 8.144 24.72C7.84533 24.528 7.42933 24.4107 6.896 24.368C6.68267 24.368 6.52267 24.304 6.416 24.176C6.33067 24.0267 6.29867 23.8773 6.32 23.728C6.34133 23.5573 6.40533 23.408 6.512 23.28C6.61867 23.152 6.77867 23.0773 6.992 23.056C7.48267 23.056 8.18667 23.0773 9.104 23.12C10.0213 23.1627 10.8747 23.2373 11.664 23.344C12.048 23.3653 12.6133 23.376 13.36 23.376C14.128 23.376 14.928 23.3653 15.76 23.344C16.592 23.344 17.3813 23.344 18.128 23.344C18.896 23.3227 19.4827 23.3013 19.888 23.28L20.048 19.728C19.7067 19.728 19.1947 19.7387 18.512 19.76C17.8507 19.76 17.1573 19.76 16.432 19.76C15.728 19.76 15.0667 19.7707 14.448 19.792C13.8507 19.792 13.4453 19.792 13.232 19.792C12.848 19.8347 12.432 19.9307 11.984 20.08C11.536 20.208 11.248 20.2933 11.12 20.336C10.9493 20.4 10.7253 20.4533 10.448 20.496C10.192 20.5387 9.872 20.4853 9.488 20.336C9.168 20.2293 8.76267 20.0587 8.272 19.824C7.78133 19.568 7.376 19.312 7.056 19.056C6.77867 18.8213 6.672 18.5867 6.736 18.352C6.82133 18.1173 7.088 18.032 7.536 18.096C8.13333 18.1813 8.816 18.256 9.584 18.32C10.3733 18.3627 11.12 18.384 11.824 18.384C12.0587 18.4053 12.432 18.4267 12.944 18.448C13.4773 18.448 14.0533 18.448 14.672 18.448C15.312 18.448 15.952 18.448 16.592 18.448C17.2533 18.4267 17.8293 18.3947 18.32 18.352C18.64 18.3307 18.9067 18.2987 19.12 18.256C19.3547 18.2133 19.504 18.1707 19.568 18.128C19.5893 18.128 19.6213 18.1173 19.664 18.096C19.728 18.0747 19.792 18.0427 19.856 18C19.8987 17.9787 19.9413 17.9573 19.984 17.936C20.048 17.9147 20.112 17.8933 20.176 17.872C20.6027 17.8293 21.0933 17.8187 21.648 17.84C22.2027 17.84 22.6507 17.872 22.992 17.936C23.2907 18.0213 23.4613 18.1707 23.504 18.384C23.5467 18.5973 23.536 18.8 23.472 18.992C23.408 19.12 23.3333 19.28 23.248 19.472C23.184 19.6427 23.1413 19.8027 23.12 19.952L22.352 23.248C22.7147 23.2693 22.992 23.344 23.184 23.472C23.376 23.6 23.472 23.76 23.472 23.952C23.472 24.208 23.3867 24.4107 23.216 24.56C23.0453 24.688 22.6507 24.752 22.032 24.752C21.5627 24.752 20.8267 24.7627 19.824 24.784C18.8427 24.784 17.7973 24.7947 16.688 24.816C15.6 24.8373 14.5653 24.848 13.584 24.848C12.624 24.848 11.9413 24.848 11.536 24.848V27.536C11.536 27.8987 11.6427 28.144 11.856 28.272C12.0907 28.4213 12.3893 28.496 12.752 28.496L18.128 28.432C18.512 28.432 18.9067 28.4107 19.312 28.368C19.7173 28.3253 20.112 28.208 20.496 28.016C20.5813 27.952 20.688 27.888 20.816 27.824C20.944 27.7813 21.104 27.7493 21.296 27.728C21.7227 27.7067 22.2133 27.696 22.768 27.696C23.344 27.7173 23.792 27.7387 24.112 27.76C24.5387 27.824 24.8587 27.9627 25.072 28.176C25.3067 28.4107 25.424 28.656 25.424 28.912C25.4027 29.168 25.264 29.392 25.008 29.584C24.7733 29.7973 24.4 29.904 23.888 29.904L11.888 30ZM8.048 3.248C10.1173 3.248 11.8133 3.83467 13.136 5.008C14.48 6.16 15.152 7.71733 15.152 9.68C15.152 11.6 14.48 13.136 13.136 14.288C11.8133 15.4187 10.1173 15.984 8.048 15.984C7.00267 15.984 6.04267 15.8453 5.168 15.568C4.31467 15.2693 3.568 14.8427 2.928 14.288C2.30933 13.7333 1.81867 13.072 1.456 12.304C1.11467 11.5147 0.944 10.64 0.944 9.68C0.944 8.69866 1.11467 7.81333 1.456 7.024C1.81867 6.23466 2.30933 5.56267 2.928 5.008C3.568 4.45333 4.31467 4.02667 5.168 3.728C6.04267 3.408 7.00267 3.248 8.048 3.248ZM8.048 5.04C6.704 5.04 5.648 5.47733 4.88 6.352C4.112 7.22667 3.728 8.32533 3.728 9.648C3.728 10.9493 4.112 12.048 4.88 12.944C5.648 13.8187 6.704 14.256 8.048 14.256C9.37067 14.256 10.416 13.8187 11.184 12.944C11.9733 12.048 12.368 10.9493 12.368 9.648C12.368 8.32533 11.9733 7.22667 11.184 6.352C10.416 5.47733 9.37067 5.04 8.048 5.04ZM38.5295 10.32C39.1055 10.7253 39.6815 11.12 40.2575 11.504C40.8335 11.888 41.2175 12.1333 41.4095 12.24C41.5375 12.3253 41.6548 12.3893 41.7615 12.432C41.8895 12.4747 41.9962 12.5067 42.0815 12.528C42.1455 12.5493 42.2095 12.5707 42.2735 12.592C42.3375 12.592 42.4015 12.592 42.4655 12.592C42.5508 12.6347 42.6255 12.6667 42.6895 12.688C42.7748 12.7093 42.8495 12.7307 42.9135 12.752C42.9988 12.7947 43.0735 12.8373 43.1375 12.88C43.2015 12.9013 43.2762 12.944 43.3615 13.008C43.8308 13.4133 44.2255 13.8507 44.5455 14.32C44.8868 14.7893 45.1642 15.216 45.3775 15.6C45.5268 15.9413 45.5908 16.2613 45.5695 16.56C45.5482 16.8373 45.4628 17.04 45.3135 17.168C45.1428 17.296 44.9082 17.3173 44.6095 17.232C44.3108 17.1467 43.9695 16.912 43.5855 16.528C43.2655 16.272 42.8708 15.952 42.4015 15.568C41.9322 15.184 41.4308 14.768 40.8975 14.32C40.3642 13.8933 39.8202 13.456 39.2655 13.008C38.7108 12.56 38.1882 12.144 37.6975 11.76C36.6308 12.976 35.4788 14.096 34.2415 15.12C33.0042 16.1227 31.7242 16.976 30.4015 17.68C29.5268 18.192 28.9402 18.3307 28.6415 18.096C28.3428 17.84 28.4175 17.52 28.8655 17.136C29.8042 16.496 30.7215 15.7493 31.6175 14.896C32.5348 14.0427 33.3775 13.1467 34.1455 12.208C34.9135 11.248 35.5962 10.2667 36.1935 9.264C36.8122 8.26133 37.3028 7.28 37.6655 6.32C37.8362 5.85067 37.8468 5.47733 37.6975 5.2C37.5482 4.90133 37.1855 4.63467 36.6095 4.4C36.0548 4.12267 35.8308 3.824 35.9375 3.504C36.0655 3.16267 36.4175 3.024 36.9935 3.088C37.5695 3.17333 38.1775 3.30133 38.8175 3.472C39.4575 3.64267 40.0868 3.84533 40.7055 4.08C41.0895 4.272 41.3028 4.48533 41.3455 4.72C41.4095 4.95467 41.4095 5.2 41.3455 5.456C41.3028 5.584 41.2388 5.75467 41.1535 5.968C41.0682 6.16 40.9935 6.33067 40.9295 6.48C40.5882 7.16267 40.2148 7.83467 39.8095 8.496C39.4255 9.136 38.9988 9.744 38.5295 10.32ZM45.3455 19.088C47.3935 19.088 49.0362 19.6107 50.2735 20.656C51.5322 21.7013 52.1615 23.12 52.1615 24.912C52.1615 26.64 51.5322 28.048 50.2735 29.136C49.0362 30.224 47.3935 30.768 45.3455 30.768C44.3428 30.768 43.4255 30.6293 42.5935 30.352C41.7615 30.0747 41.0362 29.6693 40.4175 29.136C39.8202 28.624 39.3508 28.0053 39.0095 27.28C38.6682 26.576 38.4975 25.7867 38.4975 24.912C38.4975 24.016 38.6682 23.216 39.0095 22.512C39.3508 21.7867 39.8308 21.168 40.4495 20.656C41.0468 20.1653 41.7615 19.7813 42.5935 19.504C43.4468 19.2267 44.3642 19.088 45.3455 19.088ZM45.3455 20.912C44.0868 20.912 43.0842 21.3067 42.3375 22.096C41.5908 22.864 41.2175 23.824 41.2175 24.976C41.2175 26.0853 41.5908 27.0133 42.3375 27.76C43.0842 28.528 44.0868 28.912 45.3455 28.912C46.6042 28.912 47.5855 28.528 48.2895 27.76C49.0148 27.0133 49.3775 26.0853 49.3775 24.976C49.3775 23.824 49.0148 22.864 48.2895 22.096C47.5855 21.3067 46.6042 20.912 45.3455 20.912ZM52.2575 4.208V10.608C52.7055 10.5867 53.1642 10.5333 53.6335 10.448C54.1242 10.3627 54.4975 10.192 54.7535 9.936C54.8815 9.78667 55.2548 9.70133 55.8735 9.68C56.4922 9.65867 57.0575 9.68 57.5695 9.744C58.0815 9.872 58.4548 10.064 58.6895 10.32C58.9242 10.5547 59.0202 10.8 58.9775 11.056C58.9135 11.312 58.7215 11.536 58.4015 11.728C58.1028 11.8987 57.6762 11.984 57.1215 11.984H52.2575V14.576C52.2575 16.24 52.0762 17.5307 51.7135 18.448C51.3508 19.3653 50.9668 19.824 50.5615 19.824C50.1988 19.8453 49.9322 19.4933 49.7615 18.768C49.5908 18.0213 49.5055 17.0613 49.5055 15.888V4.784C49.5055 4.272 49.4628 3.84533 49.3775 3.504C49.2922 3.16267 49.1108 2.896 48.8335 2.704C48.4708 2.448 48.0442 2.24533 47.5535 2.096C47.0842 1.94667 46.6255 1.82933 46.1775 1.744C46.0068 1.72267 45.8895 1.63733 45.8255 1.488C45.7615 1.33867 45.7508 1.18933 45.7935 1.04C45.8148 0.890665 45.8895 0.762665 46.0175 0.655998C46.1455 0.527999 46.3268 0.463999 46.5615 0.463999C47.3722 0.485332 48.3322 0.570665 49.4415 0.719999C50.5508 0.847999 51.4895 1.02933 52.2575 1.264C52.4068 1.328 52.5242 1.456 52.6095 1.648C52.6948 1.81867 52.7055 2.02133 52.6415 2.256C52.5135 2.576 52.4175 2.90667 52.3535 3.248C52.3108 3.568 52.2788 3.888 52.2575 4.208ZM81.459 14.416C81.6083 14.352 81.779 14.2987 81.971 14.256C82.163 14.2133 82.3337 14.1813 82.483 14.16C83.0377 14.1173 83.5923 14.1067 84.147 14.128C84.7017 14.128 85.2563 14.1493 85.811 14.192C86.451 14.256 86.9417 14.384 87.283 14.576C87.6457 14.7467 87.827 15.0133 87.827 15.376C87.8057 15.8027 87.603 16.0907 87.219 16.24C86.8563 16.368 86.3763 16.432 85.779 16.432C85.1177 16.432 84.2963 16.432 83.315 16.432C82.3337 16.4107 81.299 16.4 80.211 16.4C79.123 16.4 78.0457 16.4 76.979 16.4C75.9123 16.3787 74.9737 16.3573 74.163 16.336C73.5443 16.336 72.8617 16.3467 72.115 16.368C71.3897 16.3893 70.6643 16.4107 69.939 16.432C69.235 16.4747 68.5523 16.5173 67.891 16.56C67.251 16.6027 66.7283 16.6347 66.323 16.656C66.131 16.6773 65.9497 16.7093 65.779 16.752C65.6083 16.7733 65.4483 16.8053 65.299 16.848C65.171 16.8907 65.0323 16.944 64.883 17.008C64.755 17.0507 64.627 17.0827 64.499 17.104C64.2003 17.2107 63.859 17.2853 63.475 17.328C63.1123 17.3493 62.6217 17.2853 62.003 17.136C61.619 17.072 61.171 16.944 60.659 16.752C60.147 16.56 59.603 16.304 59.027 15.984C58.4083 15.664 58.131 15.344 58.195 15.024C58.2803 14.6827 58.739 14.5653 59.571 14.672C60.531 14.8 61.5657 14.8853 62.675 14.928C63.8057 14.9707 64.883 14.992 65.907 14.992C66.6537 14.992 67.6137 14.992 68.787 14.992C69.9817 14.992 71.219 14.9813 72.499 14.96C73.779 14.96 75.027 14.9493 76.243 14.928C77.459 14.9067 78.483 14.8853 79.315 14.864C79.763 14.864 80.1897 14.8107 80.595 14.704C81.0003 14.576 81.2883 14.48 81.459 14.416ZM69.203 29.968C68.755 29.968 68.3283 29.9467 67.923 29.904C67.539 29.8827 67.187 29.7973 66.867 29.648C66.5683 29.4987 66.3337 29.2747 66.163 28.976C65.9923 28.6987 65.907 28.304 65.907 27.792V26.224C65.907 25.776 65.747 25.4667 65.427 25.296C65.1283 25.104 64.723 24.9867 64.211 24.944C63.9977 24.944 63.8377 24.88 63.731 24.752C63.6457 24.6027 63.6137 24.4533 63.635 24.304C63.6563 24.1333 63.7203 23.984 63.827 23.856C63.9337 23.728 64.0937 23.6533 64.307 23.632C64.7763 23.632 65.4697 23.6533 66.387 23.696C67.3257 23.7387 68.1897 23.8133 68.979 23.92C69.363 23.9413 69.9817 23.952 70.835 23.952C71.6883 23.952 72.595 23.952 73.555 23.952C74.4937 23.952 75.3897 23.952 76.243 23.952C77.1177 23.9307 77.7577 23.9093 78.163 23.888L78.323 20.72C77.9817 20.72 77.4163 20.7307 76.627 20.752C75.859 20.752 75.059 20.752 74.227 20.752C73.395 20.752 72.627 20.7627 71.923 20.784C71.219 20.784 70.7603 20.784 70.547 20.784C70.163 20.8267 69.7363 20.9227 69.267 21.072C68.819 21.2 68.5417 21.2853 68.435 21.328C68.2643 21.392 68.0403 21.4453 67.763 21.488C67.507 21.5307 67.187 21.4773 66.803 21.328C66.483 21.2213 66.0777 21.0507 65.587 20.816C65.0963 20.56 64.691 20.304 64.371 20.048C64.0723 19.8133 63.9657 19.5787 64.051 19.344C64.1363 19.1093 64.403 19.024 64.851 19.088C65.4483 19.1733 66.131 19.248 66.899 19.312C67.6883 19.3547 68.435 19.376 69.139 19.376C69.3737 19.3973 69.8003 19.4187 70.419 19.44C71.0377 19.44 71.7203 19.44 72.467 19.44C73.235 19.44 73.9923 19.44 74.739 19.44C75.4857 19.4187 76.1043 19.3867 76.595 19.344C76.915 19.3227 77.1817 19.2907 77.395 19.248C77.6297 19.2053 77.779 19.1627 77.843 19.12C77.8643 19.12 77.8963 19.1093 77.939 19.088C78.003 19.0667 78.067 19.0347 78.131 18.992C78.1737 18.9707 78.2163 18.9493 78.259 18.928C78.323 18.9067 78.387 18.8853 78.451 18.864C78.8777 18.8213 79.3683 18.8107 79.923 18.832C80.4777 18.832 80.915 18.864 81.235 18.928C81.555 19.0133 81.7363 19.1627 81.779 19.376C81.8217 19.5893 81.811 19.792 81.747 19.984C81.683 20.112 81.619 20.272 81.555 20.464C81.491 20.6347 81.4377 20.8053 81.395 20.976L80.627 23.856C80.9897 23.8773 81.267 23.952 81.459 24.08C81.651 24.208 81.747 24.368 81.747 24.56C81.747 24.816 81.6617 25.008 81.491 25.136C81.3203 25.264 80.9257 25.328 80.307 25.328C79.8377 25.328 79.0483 25.3387 77.939 25.36C76.851 25.36 75.699 25.3707 74.483 25.392C73.267 25.4133 72.115 25.424 71.027 25.424C69.9603 25.424 69.235 25.424 68.851 25.424V27.504C68.851 27.8667 68.9577 28.112 69.171 28.24C69.4057 28.3893 69.7043 28.464 70.067 28.464L76.051 28.4C76.435 28.4 76.8297 28.3787 77.235 28.336C77.6403 28.2933 78.035 28.176 78.419 27.984C78.5257 27.92 78.643 27.856 78.771 27.792C78.899 27.7493 79.0483 27.7173 79.219 27.696C79.6457 27.6747 80.147 27.664 80.723 27.664C81.299 27.6853 81.747 27.7067 82.067 27.728C82.4937 27.792 82.8137 27.9307 83.027 28.144C83.2617 28.3787 83.379 28.624 83.379 28.88C83.3577 29.136 83.219 29.36 82.963 29.552C82.707 29.7653 82.323 29.872 81.811 29.872L69.203 29.968ZM73.075 1.296C74.1203 1.296 75.091 1.44533 75.987 1.744C76.883 2.04267 77.651 2.448 78.291 2.96C78.9523 3.49333 79.4643 4.13333 79.827 4.88C80.1897 5.60533 80.371 6.416 80.371 7.312C80.371 9.08267 79.6883 10.4693 78.323 11.472C76.9577 12.4533 75.219 12.944 73.107 12.944C72.0403 12.944 71.059 12.816 70.163 12.56C69.2883 12.304 68.531 11.9413 67.891 11.472C67.251 10.9813 66.7497 10.3947 66.387 9.712C66.0243 9.008 65.843 8.208 65.843 7.312C65.843 6.416 66.0137 5.60533 66.355 4.88C66.7177 4.13333 67.219 3.49333 67.859 2.96C68.499 2.448 69.2563 2.04267 70.131 1.744C71.027 1.44533 72.0083 1.296 73.075 1.296ZM73.075 3.088C71.6457 3.088 70.547 3.504 69.779 4.336C69.0323 5.168 68.659 6.18133 68.659 7.376C68.659 8.50667 69.0323 9.456 69.779 10.224C70.547 10.992 71.6457 11.376 73.075 11.376C74.483 11.376 75.5817 10.992 76.371 10.224C77.1603 9.456 77.555 8.50667 77.555 7.376C77.555 6.18133 77.1603 5.168 76.371 4.336C75.5817 3.504 74.483 3.088 73.075 3.088ZM107.829 3.76C108.917 3.76 109.899 3.93067 110.773 4.272C111.648 4.61333 112.395 5.08267 113.013 5.68H113.589C113.888 5.72267 114.357 5.75467 114.997 5.776C115.637 5.79733 116.213 5.808 116.725 5.808C117.173 5.808 117.728 5.808 118.389 5.808C119.051 5.78667 119.733 5.76533 120.437 5.744V4.752C120.437 4.26133 120.395 3.84533 120.309 3.504C120.224 3.16267 120.043 2.896 119.765 2.704C119.403 2.448 118.976 2.24533 118.485 2.096C118.016 1.94667 117.557 1.82933 117.109 1.744C116.939 1.72267 116.821 1.63733 116.757 1.488C116.715 1.33867 116.715 1.18933 116.757 1.04C116.779 0.890665 116.853 0.762665 116.981 0.655998C117.131 0.527999 117.323 0.463999 117.557 0.463999C118.368 0.485332 119.307 0.570665 120.373 0.719999C121.461 0.847999 122.389 1.02933 123.157 1.264C123.285 1.328 123.392 1.456 123.477 1.648C123.563 1.81867 123.573 2.02133 123.509 2.256C123.403 2.576 123.317 2.90667 123.253 3.248C123.211 3.568 123.179 3.888 123.157 4.208V14.16C123.157 15.824 122.976 17.1893 122.613 18.256C122.251 19.3013 121.877 19.824 121.493 19.824C121.109 19.8453 120.832 19.4827 120.661 18.736C120.512 17.9893 120.437 17.1147 120.437 16.112V14.096C120.117 14.096 119.829 14.1067 119.573 14.128C119.339 14.1493 119.179 14.16 119.093 14.16C118.88 14.2027 118.613 14.2667 118.293 14.352C117.973 14.416 117.653 14.512 117.333 14.64C116.885 14.832 116.491 14.928 116.149 14.928C115.829 14.928 115.531 14.864 115.253 14.736C114.912 14.6507 114.603 14.5547 114.325 14.448C114.069 14.3413 113.845 14.224 113.653 14.096C113.056 14.9493 112.256 15.632 111.253 16.144C110.251 16.6347 109.109 16.88 107.829 16.88C106.784 16.88 105.824 16.72 104.949 16.4C104.096 16.08 103.349 15.632 102.709 15.056C102.091 14.48 101.6 13.7973 101.237 13.008C100.896 12.1973 100.725 11.312 100.725 10.352C100.725 9.37067 100.896 8.47467 101.237 7.664C101.6 6.85333 102.091 6.16 102.709 5.584C103.349 5.008 104.096 4.56 104.949 4.24C105.824 3.92 106.784 3.76 107.829 3.76ZM114.197 7.44C114.389 7.86667 114.528 8.336 114.613 8.848C114.72 9.33867 114.773 9.84 114.773 10.352C114.773 10.8 114.741 11.2267 114.677 11.632C114.613 12.016 114.517 12.3787 114.389 12.72H116.629C116.864 12.72 117.131 12.72 117.429 12.72C117.728 12.72 118.037 12.7093 118.357 12.688C118.699 12.688 119.04 12.688 119.381 12.688C119.723 12.6667 120.075 12.6453 120.437 12.624V7.216C120.117 7.216 119.851 7.22667 119.637 7.248C119.445 7.248 119.307 7.248 119.221 7.248C119.008 7.29067 118.741 7.35467 118.421 7.44C118.101 7.504 117.781 7.6 117.461 7.728C117.013 7.92 116.619 8.016 116.277 8.016C115.957 8.016 115.659 7.952 115.381 7.824C115.253 7.80267 115.083 7.76 114.869 7.696C114.656 7.61067 114.432 7.52533 114.197 7.44ZM107.829 5.552C106.485 5.552 105.429 6.02133 104.661 6.96C103.893 7.87733 103.509 8.99733 103.509 10.32C103.509 11.6213 103.893 12.7307 104.661 13.648C105.429 14.5653 106.485 15.024 107.829 15.024C109.152 15.024 110.197 14.5653 110.965 13.648C111.755 12.7307 112.149 11.6213 112.149 10.32C112.149 8.99733 111.755 7.87733 110.965 6.96C110.197 6.02133 109.152 5.552 107.829 5.552ZM116.085 19.184C118.112 19.184 119.755 19.696 121.013 20.72C122.272 21.7227 122.901 23.12 122.901 24.912C122.901 26.64 122.272 28.048 121.013 29.136C119.755 30.224 118.112 30.768 116.085 30.768C115.083 30.768 114.165 30.6293 113.333 30.352C112.501 30.0747 111.776 29.6693 111.157 29.136C110.539 28.624 110.059 28.0053 109.717 27.28C109.376 26.576 109.205 25.7867 109.205 24.912C109.205 24.016 109.376 23.216 109.717 22.512C110.059 21.808 110.539 21.2107 111.157 20.72C111.776 20.2293 112.501 19.856 113.333 19.6C114.187 19.3227 115.104 19.184 116.085 19.184ZM116.085 20.848C114.827 20.848 113.824 21.2533 113.077 22.064C112.331 22.8533 111.957 23.824 111.957 24.976C111.957 26.0853 112.331 27.024 113.077 27.792C113.824 28.5813 114.827 28.976 116.085 28.976C117.344 28.976 118.325 28.5813 119.029 27.792C119.733 27.024 120.085 26.0853 120.085 24.976C120.085 23.824 119.733 22.8533 119.029 22.064C118.325 21.2533 117.344 20.848 116.085 20.848ZM152.167 4.24V14.96C152.636 14.96 153.095 14.928 153.543 14.864C154.012 14.8 154.396 14.64 154.695 14.384C154.823 14.192 155.175 14.0853 155.751 14.064C156.348 14.0427 156.881 14.0853 157.351 14.192C157.905 14.32 158.3 14.512 158.535 14.768C158.791 15.0027 158.897 15.248 158.855 15.504C158.812 15.7387 158.631 15.952 158.311 16.144C158.012 16.3147 157.596 16.4 157.063 16.4H152.167V23.6C152.167 25.904 152.028 27.7493 151.751 29.136C151.473 30.5227 151.068 31.216 150.535 31.216C150.3 31.2587 150.108 31.12 149.959 30.8C149.809 30.48 149.703 30.0533 149.639 29.52C149.553 29.008 149.489 28.4107 149.447 27.728C149.425 27.0453 149.415 26.3413 149.415 25.616V21.904C148.369 22.1173 147.26 22.352 146.087 22.608C144.913 22.8427 143.74 23.0773 142.567 23.312C141.393 23.5253 140.241 23.7387 139.111 23.952C138.001 24.144 136.999 24.2933 136.103 24.4C135.825 24.4427 135.527 24.5173 135.207 24.624C134.908 24.7093 134.641 24.784 134.407 24.848C134.257 24.912 134.108 24.976 133.959 25.04C133.831 25.0827 133.681 25.1253 133.511 25.168C133.361 25.1893 133.191 25.2 132.999 25.2C132.807 25.2 132.604 25.168 132.391 25.104C132.049 25.0187 131.559 24.8587 130.919 24.624C130.3 24.368 129.703 24.08 129.127 23.76C128.487 23.3973 128.22 23.0453 128.327 22.704C128.433 22.3413 128.807 22.2133 129.447 22.32C129.959 22.384 130.599 22.4267 131.367 22.448C132.156 22.4693 132.849 22.48 133.447 22.48C134.044 22.48 134.684 22.4587 135.367 22.416C136.071 22.3733 136.807 22.32 137.575 22.256V19.248C136.167 18.992 135.004 18.416 134.087 17.52C133.169 16.6027 132.711 15.536 132.711 14.32C132.711 13.5307 132.871 12.816 133.191 12.176C133.532 11.536 133.991 10.9813 134.567 10.512C135.121 10.064 135.783 9.72267 136.551 9.488C137.319 9.232 138.14 9.104 139.015 9.104C139.868 9.104 140.679 9.232 141.447 9.488C142.236 9.744 142.919 10.096 143.495 10.544C144.092 10.992 144.561 11.536 144.903 12.176C145.244 12.816 145.415 13.5307 145.415 14.32C145.415 15.536 144.935 16.6027 143.975 17.52C143.015 18.4373 141.831 19.024 140.423 19.28L140.391 21.84C142.055 21.712 143.655 21.52 145.191 21.264C146.727 21.008 148.135 20.752 149.415 20.496V4.848C149.415 4.336 149.372 3.90933 149.287 3.568C149.223 3.22667 149.063 2.94933 148.807 2.736C148.465 2.48 148.049 2.27733 147.559 2.128C147.089 1.97867 146.631 1.86133 146.183 1.776C146.012 1.75467 145.884 1.66933 145.799 1.52C145.735 1.37067 145.724 1.21067 145.767 1.04C145.788 0.890665 145.852 0.762665 145.959 0.655998C146.087 0.527999 146.268 0.474665 146.503 0.495998C147.313 0.517331 148.252 0.602665 149.319 0.751999C150.385 0.879999 151.303 1.06133 152.071 1.296C152.22 1.36 152.337 1.47733 152.423 1.648C152.508 1.81867 152.529 2.032 152.487 2.288C152.38 2.608 152.295 2.93867 152.231 3.28C152.188 3.6 152.167 3.92 152.167 4.24ZM139.015 17.648C140.017 17.648 140.86 17.328 141.543 16.688C142.247 16.048 142.599 15.248 142.599 14.288C142.599 13.2853 142.257 12.464 141.575 11.824C140.892 11.1627 140.039 10.832 139.015 10.832C138.012 10.832 137.169 11.1413 136.487 11.76C135.804 12.3573 135.463 13.2 135.463 14.288C135.463 15.2267 135.804 16.0267 136.487 16.688C137.169 17.328 138.012 17.648 139.015 17.648ZM141.415 4.816C141.031 4.85867 140.679 4.89067 140.359 4.912C140.06 4.93333 139.772 4.95467 139.495 4.976C139.217 4.99733 138.94 5.008 138.663 5.008C138.407 4.98667 138.14 4.944 137.863 4.88C137.479 4.85867 137.031 4.73067 136.519 4.496C136.028 4.26133 135.495 3.92 134.919 3.472C134.449 3.088 134.332 2.768 134.567 2.512C134.801 2.23467 135.271 2.21333 135.975 2.448C136.807 2.64 137.639 2.75733 138.471 2.8C139.324 2.82133 140.273 2.832 141.319 2.832C141.916 2.832 142.353 2.928 142.631 3.12C142.929 3.312 143.068 3.536 143.047 3.792C143.047 4.02667 142.897 4.25067 142.599 4.464C142.321 4.67733 141.927 4.79467 141.415 4.816ZM147.847 7.088C147.847 7.408 147.676 7.632 147.335 7.76C147.015 7.888 146.631 7.952 146.183 7.952C146.076 7.952 145.809 7.96267 145.383 7.984C144.977 7.984 144.508 7.984 143.975 7.984C143.42 7.984 142.865 7.984 142.311 7.984C141.756 7.984 141.287 7.984 140.903 7.984C140.561 8.00533 140.135 8.02667 139.623 8.048C139.132 8.048 138.641 8.048 138.151 8.048C137.639 8.06933 137.169 8.09067 136.743 8.112C136.316 8.112 135.996 8.12267 135.783 8.144C135.676 8.16533 135.569 8.19733 135.463 8.24C135.356 8.26133 135.249 8.28267 135.143 8.304C135.036 8.34667 134.929 8.38933 134.823 8.432C134.737 8.45333 134.652 8.47467 134.567 8.496C134.396 8.56 134.236 8.624 134.087 8.688C133.959 8.73067 133.799 8.76267 133.607 8.784C133.436 8.784 133.244 8.77333 133.031 8.752C132.817 8.70933 132.572 8.624 132.295 8.496C131.975 8.432 131.612 8.31467 131.207 8.144C130.801 7.97333 130.396 7.77067 129.991 7.536C129.415 7.216 129.159 6.91733 129.223 6.64C129.287 6.36267 129.553 6.256 130.023 6.32C130.791 6.384 131.601 6.43733 132.455 6.48C133.308 6.50133 134.332 6.512 135.527 6.512C135.804 6.512 136.209 6.52267 136.743 6.544C137.276 6.544 137.841 6.544 138.439 6.544C139.036 6.544 139.601 6.544 140.135 6.544C140.689 6.544 141.116 6.53333 141.415 6.512C141.543 6.512 141.713 6.48 141.927 6.416C142.161 6.33066 142.321 6.256 142.407 6.192C142.535 6.128 142.663 6.08533 142.791 6.064C142.94 6.02133 143.089 5.98933 143.239 5.968C143.516 5.92533 143.772 5.904 144.007 5.904C144.263 5.88267 144.519 5.88267 144.775 5.904C145.031 5.904 145.276 5.92533 145.511 5.968C145.767 5.98933 146.044 6.01067 146.343 6.032C146.748 6.096 147.1 6.21333 147.399 6.384C147.697 6.53333 147.847 6.768 147.847 7.088ZM183.032 4.176V23.568C183.054 25.872 182.926 27.7173 182.648 29.104C182.371 30.4907 181.976 31.184 181.464 31.184C181.23 31.2053 181.038 31.056 180.888 30.736C180.76 30.416 180.654 29.9893 180.568 29.456C180.483 28.9227 180.419 28.3147 180.376 27.632C180.355 26.9493 180.344 26.2347 180.344 25.488V14.768C180.28 14.768 180.227 14.7787 180.184 14.8C180.163 14.8 180.131 14.8 180.088 14.8C180.067 14.8 180.046 14.8 180.024 14.8C180.003 14.8 179.982 14.8 179.96 14.8C179.747 14.8427 179.48 14.9067 179.16 14.992C178.84 15.056 178.52 15.152 178.2 15.28C177.752 15.472 177.358 15.568 177.016 15.568C176.696 15.568 176.398 15.504 176.12 15.376C175.864 15.312 175.523 15.184 175.096 14.992C174.67 14.7787 174.264 14.5547 173.88 14.32C173.432 14.0213 173.251 13.7547 173.336 13.52C173.422 13.264 173.731 13.168 174.264 13.232C174.584 13.2747 175.064 13.3067 175.704 13.328C176.366 13.3493 176.952 13.36 177.464 13.36C177.998 13.36 178.488 13.36 178.936 13.36C179.384 13.3387 179.854 13.3067 180.344 13.264V4.784C180.344 4.272 180.302 3.84533 180.216 3.504C180.131 3.16267 179.95 2.896 179.672 2.704C179.31 2.448 178.883 2.24533 178.392 2.096C177.923 1.94667 177.464 1.82933 177.016 1.744C176.846 1.72267 176.728 1.63733 176.664 1.488C176.6 1.33867 176.59 1.18933 176.632 1.04C176.654 0.890665 176.728 0.762665 176.856 0.655998C176.984 0.527999 177.166 0.463999 177.4 0.463999C178.211 0.485332 179.15 0.570665 180.216 0.719999C181.283 0.847999 182.2 1.02933 182.968 1.264C183.096 1.328 183.203 1.456 183.288 1.648C183.374 1.81867 183.384 2.02133 183.32 2.256C183.214 2.55467 183.139 2.87467 183.096 3.216C183.054 3.536 183.032 3.856 183.032 4.176ZM171.448 4.784C171.064 4.82667 170.712 4.85867 170.392 4.88C170.072 4.90133 169.774 4.912 169.496 4.912C169.198 4.93333 168.92 4.944 168.664 4.944C168.408 4.92267 168.152 4.89067 167.896 4.848C167.491 4.80533 167.011 4.63467 166.456 4.336C165.923 4.03733 165.432 3.68533 164.984 3.28C164.515 2.896 164.387 2.576 164.6 2.32C164.835 2.064 165.336 2.02133 166.104 2.192C166.936 2.384 167.715 2.512 168.44 2.576C169.166 2.64 170.115 2.672 171.288 2.672C171.907 2.69333 172.355 2.81067 172.632 3.024C172.931 3.216 173.08 3.44 173.08 3.696C173.059 3.952 172.91 4.19733 172.632 4.432C172.355 4.64533 171.96 4.76267 171.448 4.784ZM170.584 14.96C170.819 15.152 171.064 15.3653 171.32 15.6C171.576 15.8133 171.832 16.016 172.088 16.208C172.323 16.4213 172.536 16.6133 172.728 16.784C172.942 16.9333 173.112 17.0507 173.24 17.136C173.326 17.2 173.4 17.2533 173.464 17.296C173.55 17.3173 173.624 17.328 173.688 17.328C173.752 17.3493 173.816 17.3707 173.88 17.392C173.944 17.392 174.019 17.4027 174.104 17.424C174.296 17.488 174.435 17.552 174.52 17.616C174.606 17.68 174.691 17.744 174.776 17.808C175.096 18.192 175.438 18.6933 175.8 19.312C176.163 19.9093 176.44 20.432 176.632 20.88C176.782 21.264 176.824 21.6053 176.76 21.904C176.718 22.2027 176.6 22.4053 176.408 22.512C176.216 22.64 175.971 22.6507 175.672 22.544C175.395 22.4373 175.096 22.1707 174.776 21.744C174.52 21.4667 174.19 21.1147 173.784 20.688C173.379 20.24 172.942 19.76 172.472 19.248C172.003 18.736 171.523 18.2347 171.032 17.744C170.542 17.232 170.094 16.7627 169.688 16.336C168.43 17.616 167.096 18.8 165.688 19.888C164.28 20.976 162.904 21.84 161.56 22.48C161.07 22.736 160.686 22.8747 160.408 22.896C160.131 22.9173 159.939 22.8747 159.832 22.768C159.704 22.6613 159.651 22.5227 159.672 22.352C159.715 22.1813 159.822 22.032 159.992 21.904C161.144 21.1787 162.275 20.3253 163.384 19.344C164.494 18.3413 165.55 17.2747 166.552 16.144C167.534 15.0133 168.43 13.84 169.24 12.624C170.051 11.408 170.734 10.2027 171.288 9.008C170.584 9.05067 169.902 9.104 169.24 9.168C168.579 9.21067 168.024 9.264 167.576 9.328C167.235 9.392 166.851 9.488 166.424 9.616C165.998 9.72267 165.752 9.79733 165.688 9.84C165.496 9.968 165.251 10.0533 164.952 10.096C164.675 10.1387 164.28 10.064 163.768 9.872C163.512 9.78667 163.192 9.65867 162.808 9.488C162.424 9.296 162.019 9.06133 161.592 8.784C161.102 8.44267 160.899 8.112 160.984 7.792C161.07 7.472 161.454 7.376 162.136 7.504C162.435 7.568 162.936 7.62133 163.64 7.664C164.344 7.70667 165.016 7.728 165.656 7.728C166.702 7.728 167.651 7.71733 168.504 7.696C169.379 7.67467 170.094 7.57867 170.648 7.408C170.712 7.408 170.798 7.39733 170.904 7.376C171.032 7.33333 171.128 7.30133 171.192 7.28C171.256 7.216 171.32 7.17333 171.384 7.152C171.47 7.10933 171.576 7.07733 171.704 7.056C172.216 7.01333 172.718 7.00267 173.208 7.024C173.699 7.024 174.126 7.056 174.488 7.12C174.808 7.20533 174.99 7.39733 175.032 7.696C175.096 7.97333 175.064 8.272 174.936 8.592C174.872 8.72 174.798 8.848 174.712 8.976C174.648 9.08267 174.574 9.2 174.488 9.328C174.382 9.456 174.275 9.59467 174.168 9.744C174.083 9.872 174.008 10 173.944 10.128C173.496 10.96 172.995 11.7813 172.44 12.592C171.886 13.4027 171.267 14.192 170.584 14.96ZM213.258 4.208V13.2C213.258 14.864 213.076 16.2293 212.714 17.296C212.351 18.3413 211.978 18.864 211.594 18.864C211.21 18.8853 210.932 18.5013 210.762 17.712C210.591 16.9013 210.506 15.9093 210.506 14.736V10.992C210.356 10.992 210.218 11.0027 210.09 11.024C209.983 11.024 209.908 11.024 209.866 11.024C209.652 11.0667 209.386 11.1307 209.066 11.216C208.746 11.28 208.426 11.376 208.106 11.504C207.658 11.696 207.263 11.792 206.922 11.792C206.602 11.792 206.303 11.728 206.026 11.6C205.919 11.5787 205.802 11.5467 205.674 11.504C205.567 11.4613 205.45 11.4187 205.322 11.376C205.172 11.312 205.012 11.2587 204.842 11.216C204.671 11.152 204.5 11.088 204.33 11.024C204.244 11.1307 204.116 11.2267 203.946 11.312C203.775 11.3973 203.519 11.44 203.178 11.44H195.434V15.088C195.434 15.4933 195.562 15.7707 195.818 15.92C196.074 16.048 196.383 16.1013 196.746 16.08C197.386 16.0587 198.1 16.0053 198.89 15.92C199.679 15.8133 200.479 15.6853 201.29 15.536C202.1 15.3867 202.89 15.216 203.658 15.024C204.447 14.832 205.183 14.6293 205.866 14.416C206.122 14.3093 206.303 14.2987 206.41 14.384C206.538 14.4693 206.591 14.5867 206.57 14.736C206.548 14.9067 206.474 15.088 206.346 15.28C206.239 15.4507 206.09 15.5787 205.898 15.664C205.194 15.984 204.394 16.2933 203.498 16.592C202.602 16.8693 201.674 17.1253 200.714 17.36C199.775 17.616 198.836 17.8293 197.898 18C196.959 18.1493 196.095 18.2453 195.306 18.288C194.282 18.352 193.567 18.192 193.162 17.808C192.778 17.424 192.586 16.752 192.586 15.792V12.464C192.586 11.888 192.404 11.5147 192.042 11.344C191.7 11.152 191.263 11.0133 190.73 10.928C190.516 10.9067 190.367 10.8213 190.282 10.672C190.196 10.5227 190.175 10.3733 190.218 10.224C190.239 10.0747 190.314 9.936 190.442 9.808C190.591 9.68 190.794 9.60533 191.05 9.584C191.626 9.584 192.362 9.616 193.258 9.68C194.175 9.744 194.964 9.81867 195.626 9.904C195.796 9.92533 196.127 9.94667 196.618 9.968C197.108 9.968 197.631 9.968 198.186 9.968C198.74 9.968 199.284 9.968 199.818 9.968C200.351 9.94667 200.767 9.92533 201.066 9.904V5.584C200.298 5.584 199.487 5.60533 198.634 5.648C197.78 5.69067 197.183 5.72267 196.842 5.744C196.458 5.78667 196.095 5.84 195.754 5.904C195.434 5.968 195.092 6.064 194.73 6.192C194.559 6.256 194.356 6.288 194.122 6.288C193.908 6.288 193.62 6.23466 193.258 6.128C193.002 6.064 192.682 5.936 192.298 5.744C191.914 5.552 191.508 5.328 191.082 5.072C190.698 4.816 190.538 4.57067 190.602 4.336C190.687 4.10133 191.007 3.99467 191.562 4.016C191.882 4.03733 192.212 4.05866 192.554 4.08C192.895 4.10133 193.247 4.12267 193.61 4.144C193.972 4.18667 194.335 4.21867 194.698 4.24C195.06 4.26133 195.412 4.272 195.754 4.272C196.33 4.31467 197.012 4.32533 197.802 4.304C198.591 4.28267 199.295 4.24 199.914 4.176C200.127 4.176 200.308 4.16533 200.458 4.144C200.607 4.10133 200.714 4.05866 200.778 4.016C200.82 3.99467 200.874 3.97333 200.938 3.952C201.002 3.93067 201.076 3.89867 201.162 3.856C201.226 3.83467 201.29 3.81333 201.354 3.792C201.439 3.77067 201.514 3.74933 201.578 3.728C202.004 3.70667 202.431 3.70667 202.858 3.728C203.306 3.728 203.722 3.76 204.106 3.824C204.426 3.90933 204.607 4.06933 204.65 4.304C204.714 4.51733 204.703 4.73067 204.618 4.944C204.575 5.05066 204.522 5.14666 204.458 5.232C204.415 5.31733 204.362 5.40267 204.298 5.488C204.255 5.59467 204.212 5.69067 204.17 5.776C204.127 5.86133 204.106 5.94667 204.106 6.032L203.338 9.424C203.53 9.424 203.679 9.43467 203.786 9.456C203.914 9.456 204.042 9.456 204.17 9.456C204.49 9.49867 204.97 9.53067 205.61 9.552C206.271 9.57333 206.858 9.584 207.37 9.584C207.754 9.584 208.223 9.584 208.778 9.584C209.354 9.56267 209.93 9.54133 210.506 9.52V4.784C210.506 4.272 210.463 3.84533 210.378 3.504C210.292 3.16267 210.111 2.896 209.834 2.704C209.471 2.448 209.044 2.24533 208.554 2.096C208.084 1.94667 207.626 1.82933 207.178 1.744C207.007 1.72267 206.89 1.63733 206.826 1.488C206.762 1.33867 206.751 1.18933 206.794 1.04C206.815 0.890665 206.89 0.762665 207.018 0.655998C207.146 0.527999 207.327 0.463999 207.562 0.463999C208.372 0.485332 209.332 0.570665 210.442 0.719999C211.551 0.847999 212.49 1.02933 213.258 1.264C213.407 1.328 213.524 1.456 213.61 1.648C213.695 1.81867 213.706 2.02133 213.642 2.256C213.535 2.576 213.45 2.90667 213.386 3.248C213.322 3.568 213.279 3.888 213.258 4.208ZM213.354 28.432C213.354 28.688 213.226 28.88 212.97 29.008C212.714 29.1573 212.362 29.232 211.914 29.232C210.954 29.232 209.919 29.232 208.81 29.232C207.722 29.2533 206.676 29.264 205.674 29.264C204.671 29.2853 203.786 29.296 203.018 29.296C202.25 29.296 201.706 29.296 201.386 29.296C201.322 29.68 201.13 30.0213 200.81 30.32C200.49 30.6187 200.234 30.768 200.042 30.768C199.722 30.768 199.444 30.5973 199.21 30.256C198.996 29.936 198.879 29.4773 198.858 28.88L198.314 22.256C198.271 21.8293 198.122 21.5413 197.866 21.392C197.631 21.2427 197.236 21.1147 196.682 21.008C196.532 20.9867 196.415 20.912 196.33 20.784C196.266 20.6347 196.244 20.4853 196.266 20.336C196.287 20.1867 196.362 20.0587 196.49 19.952C196.639 19.824 196.863 19.7493 197.162 19.728C197.503 19.728 197.887 19.7493 198.314 19.792C198.762 19.8133 199.199 19.8453 199.626 19.888C200.052 19.9307 200.458 19.9733 200.842 20.016C201.226 20.0587 201.567 20.0907 201.866 20.112C201.93 20.112 202.207 20.112 202.698 20.112C203.21 20.112 203.807 20.112 204.49 20.112C205.172 20.112 205.876 20.1013 206.602 20.08C207.327 20.0587 207.946 20.0267 208.458 19.984C208.671 19.984 208.863 19.9733 209.034 19.952C209.226 19.9307 209.354 19.9093 209.418 19.888C209.439 19.888 209.482 19.8773 209.546 19.856C209.61 19.8133 209.674 19.7813 209.738 19.76C209.802 19.7387 209.866 19.7173 209.93 19.696C209.994 19.6747 210.058 19.664 210.122 19.664C210.591 19.664 211.06 19.6747 211.53 19.696C211.999 19.696 212.447 19.728 212.874 19.792C213.172 19.856 213.332 20.0267 213.354 20.304C213.375 20.5813 213.322 20.8373 213.194 21.072C213.108 21.2427 213.023 21.4133 212.938 21.584C212.874 21.7547 212.842 21.9253 212.842 22.096L212.138 27.696C212.372 27.7173 212.628 27.792 212.906 27.92C213.204 28.048 213.354 28.2187 213.354 28.432ZM209.834 21.552L201.322 21.584L201.45 27.696H209.77L209.834 21.552ZM221.403 27.792C220.785 27.664 220.337 27.4187 220.059 27.056C219.803 26.6933 219.675 26.256 219.675 25.744C219.675 25.232 219.867 24.784 220.251 24.4C220.635 24.016 221.137 23.824 221.755 23.824C222.331 23.824 222.865 24.1013 223.355 24.656C223.867 25.1893 224.123 25.904 224.123 26.8C224.123 28.0373 223.825 29.1787 223.227 30.224C222.63 31.2693 221.777 32.0907 220.667 32.688C220.326 32.8587 220.081 32.7947 219.931 32.496C219.803 32.2187 219.899 31.9627 220.219 31.728C220.539 31.5147 220.913 31.0987 221.339 30.48C221.766 29.8827 222.001 29.296 222.043 28.72C222.043 28.464 221.979 28.2507 221.851 28.08C221.745 27.9307 221.595 27.8347 221.403 27.792ZM240.285 9.104C240.05 9.104 239.869 9.072 239.741 9.008C239.613 8.944 239.527 8.79467 239.485 8.56C239.421 8.02667 239.357 7.51466 239.293 7.024C239.25 6.53333 239.197 6.05333 239.133 5.584C239.069 5.11467 239.005 4.66667 238.941 4.24C238.877 3.792 238.823 3.344 238.781 2.896C238.717 2.40533 238.802 2.07467 239.037 1.904C239.293 1.712 239.698 1.616 240.253 1.616C240.786 1.616 241.181 1.712 241.437 1.904C241.693 2.07467 241.789 2.40533 241.725 2.896C241.661 3.344 241.597 3.792 241.533 4.24C241.49 4.66667 241.447 5.11467 241.405 5.584C241.341 6.05333 241.277 6.53333 241.213 7.024C241.17 7.51466 241.127 8.02667 241.085 8.56C241.021 8.79467 240.925 8.944 240.797 9.008C240.669 9.072 240.498 9.104 240.285 9.104ZM244.349 9.104C244.114 9.104 243.933 9.072 243.805 9.008C243.677 8.944 243.591 8.79467 243.549 8.56C243.485 8.02667 243.421 7.51466 243.357 7.024C243.314 6.53333 243.271 6.05333 243.229 5.584C243.165 5.11467 243.101 4.66667 243.037 4.24C242.994 3.792 242.951 3.344 242.909 2.896C242.845 2.40533 242.93 2.07467 243.165 1.904C243.421 1.712 243.826 1.616 244.381 1.616C244.914 1.616 245.309 1.712 245.565 1.904C245.821 2.07467 245.917 2.40533 245.853 2.896C245.789 3.344 245.725 3.792 245.661 4.24C245.618 4.66667 245.565 5.11467 245.501 5.584C245.437 6.05333 245.373 6.53333 245.309 7.024C245.245 7.51466 245.191 8.02667 245.149 8.56C245.085 8.79467 244.989 8.944 244.861 9.008C244.733 9.072 244.562 9.104 244.349 9.104ZM272.814 4.176V23.568C272.856 25.872 272.718 27.7173 272.398 29.104C272.099 30.4907 271.694 31.184 271.182 31.184C270.947 31.2053 270.755 31.056 270.606 30.736C270.478 30.416 270.371 29.9893 270.286 29.456C270.222 28.9227 270.168 28.304 270.126 27.6C270.104 26.9173 270.094 26.2027 270.094 25.456V4.784C270.094 4.272 270.051 3.84533 269.966 3.504C269.88 3.16267 269.699 2.896 269.422 2.704C269.059 2.448 268.632 2.24533 268.142 2.096C267.672 1.94667 267.214 1.82933 266.766 1.744C266.595 1.72267 266.478 1.63733 266.414 1.488C266.35 1.33867 266.339 1.18933 266.382 1.04C266.403 0.890665 266.478 0.762665 266.606 0.655998C266.734 0.527999 266.915 0.463999 267.15 0.463999C267.96 0.485332 268.91 0.570665 269.998 0.719999C271.086 0.847999 272.014 1.02933 272.782 1.264C272.91 1.328 273.016 1.456 273.102 1.648C273.187 1.81867 273.198 2.02133 273.134 2.256C273.027 2.576 272.942 2.896 272.878 3.216C272.835 3.536 272.814 3.856 272.814 4.176ZM258.606 12.464C258.926 12.7627 259.267 13.072 259.63 13.392C260.014 13.712 260.387 14.0213 260.75 14.32C261.091 14.6187 261.4 14.8747 261.678 15.088C261.976 15.3013 262.19 15.44 262.318 15.504C262.531 15.632 262.712 15.728 262.862 15.792C263.032 15.856 263.192 15.8987 263.342 15.92C263.47 15.984 263.619 16.0693 263.79 16.176C263.96 16.2827 264.142 16.4213 264.333 16.592C264.525 16.8267 264.696 17.0613 264.846 17.296C265.016 17.5093 265.166 17.7227 265.294 17.936C265.422 18.1493 265.539 18.352 265.646 18.544C265.752 18.736 265.859 18.9173 265.966 19.088C266.2 19.536 266.296 19.9307 266.253 20.272C266.211 20.592 266.083 20.816 265.87 20.944C265.635 21.072 265.336 21.072 264.974 20.944C264.611 20.816 264.227 20.5173 263.822 20.048C263.544 19.7493 263.15 19.3333 262.638 18.8C262.147 18.2667 261.614 17.7013 261.038 17.104C260.462 16.5067 259.886 15.9307 259.31 15.376C258.734 14.8213 258.243 14.3627 257.838 14C256.75 15.408 255.598 16.7413 254.382 18C253.166 19.2373 251.982 20.2613 250.83 21.072C250.403 21.4133 250.04 21.616 249.742 21.68C249.464 21.744 249.262 21.7333 249.134 21.648C248.984 21.5627 248.92 21.424 248.942 21.232C248.984 21.0187 249.112 20.7947 249.326 20.56C250.222 19.7707 251.096 18.864 251.95 17.84C252.824 16.7947 253.635 15.7067 254.382 14.576C255.128 13.4453 255.79 12.2827 256.366 11.088C256.942 9.89333 257.4 8.73067 257.742 7.6C257.87 7.088 257.859 6.704 257.71 6.448C257.582 6.17067 257.251 5.92533 256.718 5.712C256.142 5.43467 255.907 5.12533 256.014 4.784C256.12 4.44267 256.462 4.304 257.038 4.368C257.592 4.45333 258.222 4.57067 258.926 4.72C259.63 4.86933 260.302 5.05067 260.942 5.264C261.326 5.456 261.56 5.66933 261.646 5.904C261.731 6.11733 261.731 6.352 261.646 6.608C261.582 6.736 261.507 6.88533 261.422 7.056C261.336 7.22667 261.272 7.38667 261.23 7.536C260.931 8.32533 260.558 9.14667 260.11 10C259.683 10.832 259.182 11.6533 258.606 12.464ZM303.455 4.176V23.568C303.476 25.872 303.348 27.7173 303.071 29.104C302.815 30.4907 302.442 31.184 301.951 31.184C301.716 31.2053 301.524 31.056 301.375 30.736C301.247 30.416 301.14 29.9893 301.055 29.456C300.97 28.9227 300.916 28.304 300.895 27.6C300.874 26.9173 300.863 26.2027 300.863 25.456V4.784C300.863 4.272 300.82 3.84533 300.735 3.504C300.65 3.14133 300.468 2.864 300.191 2.672C299.892 2.48 299.54 2.29867 299.135 2.128C298.73 1.95733 298.303 1.82933 297.855 1.744C297.684 1.72267 297.567 1.63733 297.503 1.488C297.439 1.33867 297.428 1.18933 297.471 1.04C297.514 0.890665 297.599 0.762665 297.727 0.655998C297.855 0.527999 298.036 0.463999 298.271 0.463999C299.018 0.506665 299.86 0.591998 300.799 0.719999C301.759 0.847999 302.623 1.02933 303.391 1.264C303.519 1.328 303.626 1.456 303.711 1.648C303.796 1.81867 303.807 2.02133 303.743 2.256C303.658 2.53333 303.583 2.84267 303.519 3.184C303.476 3.52533 303.455 3.856 303.455 4.176ZM285.087 9.04V17.936C285.087 18.3627 285.183 18.6507 285.375 18.8C285.567 18.928 285.834 18.9707 286.175 18.928C286.58 18.9067 287.071 18.8427 287.647 18.736C288.223 18.6293 288.82 18.512 289.439 18.384C290.058 18.256 290.666 18.1173 291.263 17.968C291.86 17.7973 292.394 17.6267 292.863 17.456C293.098 17.3493 293.279 17.328 293.407 17.392C293.556 17.456 293.631 17.5627 293.631 17.712C293.652 17.8613 293.599 18.0427 293.471 18.256C293.343 18.448 293.14 18.6187 292.863 18.768C292.372 19.024 291.796 19.2907 291.135 19.568C290.474 19.8453 289.77 20.1013 289.023 20.336C288.298 20.592 287.562 20.8053 286.815 20.976C286.09 21.1467 285.428 21.264 284.831 21.328C283.935 21.4347 283.284 21.3067 282.879 20.944C282.495 20.5813 282.303 19.92 282.303 18.96V9.424C282.303 9.12533 282.25 8.85867 282.143 8.624C282.058 8.38933 281.919 8.19733 281.727 8.048C281.471 7.89867 281.13 7.77067 280.703 7.664C280.298 7.536 279.903 7.45067 279.519 7.408C279.37 7.408 279.263 7.344 279.199 7.216C279.135 7.06667 279.114 6.91733 279.135 6.768C279.156 6.61867 279.22 6.48 279.327 6.352C279.455 6.224 279.626 6.14933 279.839 6.128C280.607 6.10667 281.46 6.128 282.399 6.192C283.338 6.23467 284.212 6.32 285.023 6.448C285.151 6.49067 285.247 6.61867 285.311 6.832C285.375 7.024 285.375 7.22667 285.311 7.44C285.268 7.568 285.215 7.792 285.151 8.112C285.108 8.41067 285.087 8.72 285.087 9.04ZM294.687 12.528C294.623 12.528 294.559 12.5387 294.495 12.56C294.452 12.56 294.41 12.56 294.367 12.56C294.346 12.56 294.314 12.56 294.271 12.56C294.25 12.56 294.239 12.56 294.239 12.56C294.026 12.6027 293.759 12.6667 293.439 12.752C293.119 12.816 292.82 12.912 292.543 13.04C292.116 13.232 291.743 13.328 291.423 13.328C291.124 13.328 290.836 13.264 290.559 13.136C290.324 13.072 289.983 12.944 289.535 12.752C289.087 12.5387 288.682 12.3147 288.319 12.08C287.892 11.7813 287.711 11.5147 287.775 11.28C287.86 11.024 288.159 10.928 288.671 10.992C288.991 11.0347 289.46 11.0667 290.079 11.088C290.719 11.1093 291.284 11.12 291.775 11.12C291.946 11.12 292.138 11.12 292.351 11.12C292.564 11.12 292.799 11.12 293.055 11.12C293.311 11.12 293.567 11.12 293.823 11.12C294.1 11.0987 294.388 11.0773 294.687 11.056V6.32C294.687 5.808 294.644 5.37067 294.559 5.008C294.474 4.64533 294.303 4.368 294.047 4.176C293.791 3.984 293.471 3.81333 293.087 3.664C292.724 3.49333 292.33 3.36533 291.903 3.28C291.732 3.25867 291.615 3.184 291.551 3.056C291.487 2.90667 291.476 2.75733 291.519 2.608C291.54 2.45867 291.615 2.33067 291.743 2.224C291.871 2.096 292.052 2.032 292.287 2.032C293.055 2.07467 293.876 2.16 294.751 2.288C295.626 2.39466 296.447 2.56533 297.215 2.8C297.364 2.864 297.482 2.992 297.567 3.184C297.652 3.35467 297.663 3.55733 297.599 3.792C297.514 4.048 297.45 4.336 297.407 4.656C297.386 4.976 297.375 5.30667 297.375 5.648V22.448C297.396 24.752 297.268 26.5973 296.991 27.984C296.735 29.3707 296.351 30.064 295.839 30.064C295.604 30.0853 295.412 29.936 295.263 29.616C295.135 29.296 295.018 28.8693 294.911 28.336C294.826 27.8027 294.762 27.1947 294.719 26.512C294.698 25.8293 294.687 25.1147 294.687 24.368V12.528ZM330.833 4.176V12.944C331.281 12.9227 331.739 12.8693 332.209 12.784C332.678 12.6987 333.062 12.528 333.361 12.272C333.467 12.1227 333.819 12.0373 334.417 12.016C335.035 11.9947 335.59 12.016 336.081 12.08C336.614 12.208 336.998 12.4 337.233 12.656C337.467 12.8907 337.563 13.136 337.521 13.392C337.478 13.648 337.297 13.872 336.977 14.064C336.678 14.2347 336.262 14.32 335.729 14.32H330.833V23.568C330.854 25.872 330.715 27.7173 330.417 29.104C330.139 30.4907 329.745 31.184 329.233 31.184C328.998 31.2053 328.806 31.056 328.657 30.736C328.529 30.416 328.411 29.9893 328.305 29.456C328.219 28.9227 328.155 28.304 328.113 27.6C328.091 26.9173 328.081 26.2027 328.081 25.456V4.784C328.081 4.272 328.038 3.84533 327.953 3.504C327.867 3.16267 327.697 2.896 327.441 2.704C327.078 2.448 326.651 2.24533 326.161 2.096C325.691 1.94667 325.222 1.82933 324.753 1.744C324.582 1.72267 324.465 1.63733 324.401 1.488C324.358 1.33867 324.358 1.18933 324.401 1.04C324.443 0.890665 324.529 0.762665 324.657 0.655998C324.806 0.527999 324.998 0.463999 325.233 0.463999C326.043 0.485332 326.982 0.570665 328.049 0.719999C329.115 0.847999 330.033 1.02933 330.801 1.264C330.929 1.328 331.035 1.456 331.121 1.648C331.206 1.81867 331.217 2.02133 331.153 2.256C331.046 2.576 330.961 2.896 330.897 3.216C330.854 3.536 330.833 3.856 330.833 4.176ZM310.353 9.104C310.331 8.76267 310.193 8.496 309.937 8.304C309.681 8.09067 309.201 7.90933 308.497 7.76C308.155 7.67467 308.017 7.45067 308.081 7.088C308.166 6.72533 308.422 6.52267 308.849 6.48C309.425 6.45867 310.15 6.49067 311.025 6.576C311.899 6.64 312.753 6.736 313.585 6.864C313.926 6.864 314.353 6.864 314.865 6.864C315.398 6.864 315.942 6.85333 316.497 6.832C317.051 6.81067 317.585 6.78933 318.097 6.768C318.63 6.74667 319.067 6.704 319.409 6.64C319.537 6.64 319.643 6.62933 319.729 6.608C319.835 6.56533 319.91 6.53333 319.953 6.512C320.017 6.512 320.07 6.50133 320.113 6.48C320.177 6.43733 320.241 6.40533 320.305 6.384C320.369 6.36267 320.433 6.34133 320.497 6.32C320.561 6.29867 320.635 6.27733 320.721 6.256C321.169 6.23467 321.627 6.24533 322.097 6.288C322.566 6.30933 322.993 6.352 323.377 6.416C323.761 6.52267 323.974 6.704 324.017 6.96C324.059 7.19467 324.017 7.408 323.889 7.6C323.782 7.74933 323.665 7.94133 323.537 8.176C323.409 8.38933 323.334 8.624 323.312 8.88L322.289 17.968C322.651 17.968 322.95 18.032 323.185 18.16C323.441 18.288 323.569 18.4693 323.569 18.704C323.547 18.96 323.398 19.1627 323.121 19.312C322.865 19.44 322.513 19.504 322.065 19.504C321.297 19.504 320.465 19.5147 319.569 19.536C318.673 19.536 317.809 19.5467 316.977 19.568C316.145 19.5893 315.398 19.6107 314.737 19.632C314.075 19.632 313.617 19.632 313.361 19.632C313.297 20.1013 313.126 20.464 312.849 20.72C312.593 20.9547 312.337 21.072 312.081 21.072C311.889 21.072 311.654 20.9333 311.377 20.656C311.121 20.3573 310.982 19.856 310.961 19.152L310.353 9.104ZM320.337 8.208L313.169 8.304L313.489 18L319.953 17.968L320.337 8.208ZM362.466 4.208V13.264C362.466 14.928 362.285 16.2933 361.922 17.36C361.559 18.4053 361.186 18.928 360.802 18.928C360.418 18.9493 360.13 18.5653 359.938 17.776C359.767 16.9653 359.682 15.9733 359.682 14.8V14.32C358.679 14.704 357.506 15.088 356.162 15.472C354.839 15.856 353.485 16.208 352.098 16.528C350.69 16.848 349.314 17.1253 347.97 17.36C346.647 17.5947 345.495 17.744 344.514 17.808C343.639 17.872 342.999 17.7333 342.594 17.392C342.21 17.0507 342.018 16.4 342.018 15.44V7.792C342.018 7.152 341.815 6.736 341.41 6.544C341.005 6.352 340.45 6.18133 339.746 6.032C339.362 5.92533 339.191 5.69067 339.234 5.328C339.298 4.96533 339.554 4.76267 340.002 4.72C340.215 4.72 340.514 4.72 340.898 4.72C341.282 4.72 341.709 4.73067 342.178 4.752C342.647 4.79467 343.127 4.83733 343.618 4.88C344.109 4.90133 344.567 4.93333 344.994 4.976C345.25 5.01867 345.57 5.04 345.954 5.04C346.359 5.04 346.765 5.04 347.17 5.04C347.597 5.04 348.002 5.02933 348.386 5.008C348.791 4.96533 349.122 4.92267 349.378 4.88C349.506 4.88 349.645 4.85867 349.794 4.816C349.943 4.77333 350.061 4.72 350.146 4.656C350.231 4.592 350.338 4.528 350.466 4.464C350.615 4.37867 350.765 4.32533 350.914 4.304C351.362 4.24 351.842 4.21867 352.354 4.24C352.866 4.24 353.367 4.26133 353.858 4.304C354.327 4.368 354.669 4.51733 354.882 4.752C355.117 4.96533 355.234 5.2 355.234 5.456C355.213 5.712 355.085 5.94667 354.85 6.16C354.637 6.37333 354.317 6.48 353.89 6.48C353.293 6.50133 352.589 6.512 351.778 6.512C350.967 6.512 350.135 6.512 349.282 6.512C348.429 6.512 347.618 6.52267 346.85 6.544C346.082 6.544 345.442 6.544 344.93 6.544V10.32C345.634 10.32 346.413 10.3093 347.266 10.288C348.141 10.2667 348.823 10.192 349.314 10.064C349.442 10.0427 349.581 10.0107 349.73 9.968C349.879 9.904 349.986 9.85067 350.05 9.808C350.114 9.78667 350.167 9.75467 350.21 9.712C350.274 9.66933 350.338 9.62667 350.402 9.584C350.466 9.56267 350.53 9.54133 350.594 9.52C350.679 9.49867 350.765 9.47733 350.85 9.456C351.298 9.41333 351.767 9.392 352.258 9.392C352.749 9.392 353.218 9.41333 353.666 9.456C354.05 9.49867 354.349 9.63733 354.562 9.872C354.775 10.0853 354.882 10.3093 354.882 10.544C354.882 10.8 354.775 11.0347 354.562 11.248C354.349 11.44 354.039 11.5467 353.634 11.568C353.335 11.5893 352.813 11.6107 352.066 11.632C351.319 11.6533 350.509 11.6747 349.634 11.696C348.759 11.696 347.885 11.7067 347.01 11.728C346.157 11.728 345.463 11.728 344.93 11.728V14.512C344.93 14.9173 345.037 15.1733 345.25 15.28C345.463 15.3653 345.73 15.408 346.05 15.408C346.839 15.408 347.831 15.3227 349.026 15.152C350.221 14.9813 351.469 14.7787 352.77 14.544C354.05 14.3093 355.298 14.0533 356.514 13.776C357.751 13.4773 358.807 13.1893 359.682 12.912V4.784C359.682 4.272 359.639 3.84533 359.554 3.504C359.469 3.16267 359.298 2.896 359.042 2.704C358.679 2.448 358.253 2.24533 357.762 2.096C357.293 1.94667 356.823 1.82933 356.354 1.744C356.183 1.72267 356.066 1.63733 356.002 1.488C355.959 1.33867 355.949 1.18933 355.97 1.04C356.013 0.890665 356.098 0.762665 356.226 0.655998C356.354 0.527999 356.535 0.463999 356.77 0.463999C357.581 0.485332 358.53 0.570665 359.618 0.719999C360.727 0.847999 361.666 1.02933 362.434 1.264C362.562 1.328 362.669 1.456 362.754 1.648C362.839 1.81867 362.85 2.02133 362.786 2.256C362.679 2.576 362.594 2.90667 362.53 3.248C362.487 3.568 362.466 3.888 362.466 4.208ZM362.178 26.032C362.178 26.7147 362.114 27.344 361.986 27.92C361.879 28.5173 361.751 29.04 361.602 29.488C361.431 29.936 361.239 30.288 361.026 30.544C360.834 30.8213 360.653 30.96 360.482 30.96C360.311 30.9813 360.162 30.8747 360.034 30.64C359.906 30.4267 359.789 30.1493 359.682 29.808C359.575 29.4453 359.49 29.04 359.426 28.592C359.383 28.144 359.362 27.6853 359.362 27.216V21.744C358.871 21.7653 358.295 21.7867 357.634 21.808C356.973 21.8293 356.29 21.8507 355.586 21.872C354.882 21.8933 354.178 21.9147 353.474 21.936C352.791 21.9573 352.183 21.9787 351.65 22C351.394 22.0213 351.17 22.0533 350.978 22.096C350.786 22.1387 350.605 22.192 350.434 22.256C350.242 22.2987 350.061 22.352 349.89 22.416C349.741 22.48 349.581 22.5333 349.41 22.576C349.133 22.6613 348.823 22.704 348.482 22.704C348.162 22.704 347.767 22.6293 347.298 22.48C346.978 22.3947 346.583 22.2453 346.114 22.032C345.645 21.7973 345.154 21.5413 344.642 21.264C344.301 21.0507 344.162 20.7947 344.226 20.496C344.29 20.176 344.685 20.0693 345.41 20.176C345.794 20.24 346.37 20.2933 347.138 20.336C347.906 20.3787 348.653 20.4 349.378 20.4C350.893 20.4427 352.407 20.4427 353.922 20.4C355.458 20.3573 356.685 20.2933 357.602 20.208C357.794 20.208 357.965 20.1973 358.114 20.176C358.285 20.1333 358.413 20.1013 358.498 20.08C358.562 20.0587 358.626 20.0373 358.69 20.016C358.775 19.9947 358.85 19.9733 358.914 19.952C358.978 19.9307 359.042 19.9093 359.106 19.888C359.17 19.8667 359.245 19.8453 359.33 19.824C359.714 19.8027 360.119 19.792 360.546 19.792C360.994 19.792 361.389 19.8027 361.73 19.824C362.114 19.8667 362.327 19.9947 362.37 20.208C362.434 20.4 362.455 20.6027 362.434 20.816C362.413 20.9227 362.391 21.0293 362.37 21.136C362.349 21.2213 362.317 21.3173 362.274 21.424C362.253 21.552 362.231 21.6693 362.21 21.776C362.189 21.8827 362.178 22 362.178 22.128V26.032ZM390.516 23.824C390.686 23.76 390.857 23.7067 391.028 23.664C391.22 23.6213 391.401 23.5893 391.572 23.568C392.126 23.5253 392.67 23.5147 393.204 23.536C393.758 23.536 394.324 23.5573 394.9 23.6C395.54 23.664 396.03 23.792 396.372 23.984C396.734 24.1547 396.916 24.4213 396.916 24.784C396.894 25.2107 396.692 25.4987 396.308 25.648C395.945 25.776 395.465 25.84 394.868 25.84C394.206 25.84 393.396 25.84 392.436 25.84C391.497 25.8187 390.505 25.808 389.46 25.808C388.436 25.808 387.401 25.808 386.356 25.808C385.332 25.7867 384.414 25.7653 383.604 25.744C382.985 25.744 382.313 25.7547 381.588 25.776C380.884 25.7973 380.19 25.8187 379.508 25.84C378.804 25.8827 378.142 25.9253 377.524 25.968C376.905 26.0107 376.393 26.0427 375.988 26.064C375.796 26.0853 375.614 26.1067 375.444 26.128C375.273 26.1707 375.124 26.2133 374.996 26.256C374.846 26.2987 374.708 26.3413 374.58 26.384C374.452 26.448 374.324 26.4907 374.196 26.512C373.876 26.6187 373.524 26.6827 373.14 26.704C372.777 26.7467 372.297 26.6933 371.7 26.544C371.316 26.48 370.868 26.352 370.356 26.16C369.844 25.968 369.289 25.712 368.692 25.392C368.052 25.072 367.774 24.752 367.86 24.432C367.966 24.0907 368.436 23.9733 369.268 24.08C370.228 24.208 371.262 24.2933 372.372 24.336C373.481 24.3787 374.548 24.4 375.572 24.4C376.318 24.4 377.246 24.4 378.356 24.4C379.486 24.4 380.66 24.3893 381.876 24.368C383.07 24.368 384.244 24.3573 385.396 24.336C386.569 24.3147 387.572 24.2933 388.404 24.272C388.852 24.272 389.278 24.2187 389.684 24.112C390.089 23.984 390.366 23.888 390.516 23.824ZM392.66 5.008C392.638 5.49867 392.34 5.79733 391.764 5.904C391.188 5.98933 390.548 6.01067 389.844 5.968C388.926 5.94667 388.073 5.92533 387.284 5.904C386.494 5.88267 385.705 5.872 384.916 5.872C383.636 5.872 382.441 5.904 381.332 5.968C380.222 6.032 379.358 6.096 378.74 6.16C378.548 6.18133 378.313 6.23467 378.036 6.32C377.758 6.384 377.545 6.448 377.396 6.512C377.246 6.576 377.097 6.64 376.948 6.704C376.798 6.74667 376.628 6.77867 376.436 6.8C376.265 6.84267 376.073 6.85333 375.86 6.832C375.646 6.81067 375.401 6.75733 375.124 6.672C374.782 6.58667 374.388 6.45867 373.94 6.288C373.492 6.11733 373.012 5.872 372.5 5.552C371.924 5.232 371.678 4.92267 371.764 4.624C371.87 4.32533 372.265 4.19733 372.948 4.24C373.289 4.28267 373.63 4.31467 373.972 4.336C374.334 4.35733 374.708 4.37867 375.092 4.4C375.497 4.42133 375.934 4.44267 376.404 4.464C376.873 4.48533 377.406 4.496 378.004 4.496C378.516 4.51733 379.124 4.528 379.828 4.528C380.553 4.528 381.289 4.51733 382.036 4.496C382.782 4.496 383.508 4.48533 384.212 4.464C384.916 4.42133 385.524 4.37867 386.036 4.336C386.27 4.336 386.484 4.31467 386.676 4.272C386.889 4.208 387.028 4.15467 387.092 4.112C387.177 4.09067 387.252 4.06933 387.316 4.048C387.401 4.00533 387.476 3.97333 387.54 3.952C387.625 3.93067 387.7 3.90933 387.764 3.888C387.849 3.86667 387.934 3.84533 388.02 3.824C388.468 3.78133 388.937 3.76 389.428 3.76C389.918 3.73867 390.388 3.74933 390.836 3.792C391.412 3.856 391.86 3.984 392.18 4.176C392.5 4.368 392.66 4.64533 392.66 5.008ZM377.396 16.464L376.82 10.032C376.798 9.81867 376.745 9.616 376.66 9.424C376.574 9.21067 376.468 9.05067 376.34 8.944C376.169 8.85867 376.009 8.79467 375.86 8.752C375.732 8.70933 375.518 8.66667 375.22 8.624C374.857 8.53867 374.708 8.32533 374.772 7.984C374.836 7.62133 375.081 7.42933 375.508 7.408C376.084 7.36533 376.702 7.376 377.364 7.44C378.025 7.48267 378.548 7.54667 378.932 7.632C379.252 7.76 379.465 7.90933 379.572 8.08C379.678 8.22933 379.71 8.38933 379.668 8.56C379.604 8.79467 379.55 9.072 379.508 9.392C379.465 9.712 379.454 10.064 379.476 10.448L379.604 16.464C380.628 16.464 381.726 16.464 382.9 16.464C384.094 16.4427 385.108 16.4 385.94 16.336L386.164 9.616C386.164 9.424 386.121 9.25333 386.036 9.104C385.972 8.93333 385.865 8.77333 385.716 8.624C385.545 8.496 385.342 8.38933 385.108 8.304C384.873 8.21867 384.564 8.12267 384.18 8.016C383.817 7.90933 383.678 7.68533 383.764 7.344C383.87 7.00267 384.126 6.832 384.532 6.832C384.809 6.832 385.14 6.85333 385.524 6.896C385.929 6.91733 386.324 6.93867 386.708 6.96C387.092 7.00267 387.444 7.056 387.764 7.12C388.105 7.16267 388.372 7.216 388.564 7.28C388.862 7.408 389.044 7.54667 389.108 7.696C389.193 7.84533 389.214 8.00533 389.172 8.176C389.108 8.38933 389.022 8.67733 388.916 9.04C388.83 9.38133 388.777 9.712 388.756 10.032L388.052 15.984C388.158 15.9413 388.254 15.9093 388.34 15.888C388.446 15.8453 388.564 15.8133 388.692 15.792C389.14 15.7493 389.62 15.728 390.132 15.728C390.644 15.7067 391.124 15.7173 391.572 15.76C392.148 15.824 392.596 15.952 392.916 16.144C393.236 16.336 393.396 16.6133 393.396 16.976C393.374 17.4667 393.076 17.7653 392.5 17.872C391.924 17.9573 391.284 17.9787 390.58 17.936C389.662 17.9147 388.809 17.8933 388.02 17.872C387.23 17.8507 386.441 17.84 385.652 17.84C385.012 17.84 384.308 17.8507 383.54 17.872C382.793 17.8933 382.068 17.9147 381.364 17.936C380.66 17.9787 380.009 18.0213 379.412 18.064C378.836 18.0853 378.398 18.1067 378.1 18.128C377.908 18.1493 377.673 18.2027 377.396 18.288C377.118 18.352 376.905 18.416 376.756 18.48C376.606 18.544 376.457 18.608 376.308 18.672C376.158 18.7147 375.988 18.7467 375.796 18.768C375.625 18.8107 375.433 18.8213 375.22 18.8C375.006 18.7787 374.761 18.7253 374.484 18.64C374.142 18.5547 373.748 18.4267 373.3 18.256C372.852 18.0853 372.372 17.84 371.86 17.52C371.284 17.2 371.038 16.8907 371.124 16.592C371.23 16.2933 371.625 16.1653 372.308 16.208C372.649 16.2507 372.99 16.2827 373.332 16.304C373.694 16.3253 374.068 16.3467 374.452 16.368C374.857 16.3893 375.294 16.4107 375.764 16.432C376.233 16.4533 376.766 16.464 377.364 16.464H377.396ZM420.805 18.928L413.829 18.96V24.72C414.213 24.72 414.608 24.72 415.013 24.72C415.44 24.72 415.856 24.7093 416.261 24.688C416.666 24.688 417.04 24.688 417.381 24.688C417.744 24.688 418.053 24.6773 418.309 24.656C418.757 24.656 419.184 24.6027 419.589 24.496C419.994 24.368 420.272 24.272 420.421 24.208C420.592 24.144 420.762 24.0907 420.933 24.048C421.125 24.0053 421.306 23.9733 421.477 23.952C422.032 23.9093 422.576 23.8987 423.109 23.92C423.664 23.92 424.229 23.9413 424.805 23.984C425.445 24.048 425.936 24.176 426.277 24.368C426.64 24.5387 426.821 24.8053 426.821 25.168C426.8 25.5947 426.597 25.872 426.213 26C425.85 26.1493 425.37 26.224 424.773 26.224C424.112 26.224 423.301 26.2133 422.341 26.192C421.402 26.192 420.421 26.192 419.397 26.192C418.352 26.192 417.317 26.1813 416.293 26.16C415.269 26.16 414.352 26.1493 413.541 26.128C412.922 26.128 412.25 26.1387 411.525 26.16C410.821 26.1813 410.117 26.2027 409.413 26.224C408.73 26.2667 408.069 26.3093 407.429 26.352C406.81 26.3947 406.298 26.4267 405.893 26.448C405.701 26.4693 405.52 26.4907 405.349 26.512C405.178 26.5547 405.029 26.5973 404.901 26.64C404.752 26.6827 404.613 26.7253 404.485 26.768C404.357 26.832 404.229 26.8747 404.101 26.896C403.781 27.0027 403.429 27.0667 403.045 27.088C402.682 27.1307 402.202 27.0773 401.605 26.928C401.221 26.864 400.773 26.736 400.261 26.544C399.749 26.352 399.194 26.096 398.597 25.776C397.957 25.456 397.68 25.136 397.765 24.816C397.872 24.4747 398.341 24.3573 399.173 24.464C400.133 24.592 401.168 24.6773 402.277 24.72C403.386 24.7627 404.453 24.784 405.477 24.784C406.202 24.784 407.002 24.784 407.877 24.784C408.752 24.784 409.808 24.7733 411.045 24.752V18.96H407.141C406.714 18.96 406.298 18.9493 405.893 18.928C405.509 18.8853 405.168 18.7893 404.869 18.64C404.549 18.4907 404.293 18.2773 404.101 18C403.93 17.7227 403.845 17.328 403.845 16.816V13.136C403.845 12.56 403.674 12.1867 403.333 12.016C402.992 11.8453 402.554 11.7173 402.021 11.632C401.594 11.568 401.424 11.3547 401.509 10.992C401.594 10.608 401.872 10.384 402.341 10.32C402.917 10.2773 403.642 10.288 404.517 10.352C405.413 10.416 406.213 10.512 406.917 10.64C407.514 10.6827 408.272 10.704 409.189 10.704C410.128 10.704 411.098 10.6933 412.101 10.672C413.104 10.672 414.085 10.6613 415.045 10.64C416.005 10.6187 416.805 10.5867 417.445 10.544L417.573 5.68C416.954 5.68 416.208 5.69067 415.333 5.712C414.458 5.712 413.594 5.712 412.741 5.712C411.866 5.73333 411.088 5.75467 410.405 5.776C409.722 5.776 409.274 5.776 409.061 5.776C408.677 5.81867 408.282 5.89333 407.877 6C407.493 6.10667 407.237 6.18133 407.109 6.224C407.002 6.26667 406.885 6.32 406.757 6.384C406.65 6.42667 406.512 6.45867 406.341 6.48C406.192 6.50133 406.021 6.512 405.829 6.512C405.637 6.49067 405.424 6.43733 405.189 6.352C404.848 6.24533 404.421 6.08533 403.909 5.872C403.418 5.63733 402.917 5.36 402.405 5.04C402.021 4.784 401.882 4.528 401.989 4.272C402.096 4.016 402.458 3.90933 403.077 3.952C403.653 4.016 404.368 4.08 405.221 4.144C406.074 4.18667 406.853 4.208 407.557 4.208C408.069 4.22933 408.73 4.25067 409.541 4.272C410.352 4.272 411.184 4.26133 412.037 4.24C412.912 4.24 413.754 4.22933 414.565 4.208C415.376 4.18667 416.058 4.144 416.613 4.08C416.677 4.08 416.741 4.08 416.805 4.08C416.869 4.05866 416.922 4.03733 416.965 4.016C417.008 4.016 417.05 4.016 417.093 4.016C417.157 3.99467 417.21 3.97333 417.253 3.952C417.296 3.952 417.338 3.94133 417.381 3.92C417.445 3.87733 417.498 3.84533 417.541 3.824C417.584 3.80267 417.637 3.78133 417.701 3.76C417.765 3.73867 417.829 3.71733 417.893 3.696C418.341 3.67467 418.81 3.67467 419.301 3.696C419.813 3.71733 420.25 3.76 420.613 3.824C420.933 3.90933 421.114 4.06933 421.157 4.304C421.2 4.51733 421.189 4.69867 421.125 4.848C421.082 4.93333 421.04 5.02933 420.997 5.136C420.954 5.22133 420.912 5.31733 420.869 5.424C420.826 5.53067 420.784 5.63733 420.741 5.744C420.72 5.82933 420.709 5.91467 420.709 6L419.813 10.576C420.176 10.576 420.464 10.6507 420.677 10.8C420.89 10.9493 420.997 11.1307 420.997 11.344C420.997 11.5573 420.912 11.7493 420.741 11.92C420.57 12.0907 420.261 12.176 419.813 12.176C419.301 12.1973 418.405 12.2187 417.125 12.24C415.866 12.24 414.544 12.24 413.157 12.24C411.749 12.24 410.437 12.24 409.221 12.24C408.005 12.24 407.194 12.24 406.789 12.24V16.4C406.789 16.784 406.917 17.0507 407.173 17.2C407.429 17.3493 407.728 17.424 408.069 17.424L414.757 17.392C414.928 17.392 415.109 17.4027 415.301 17.424C415.493 17.424 415.685 17.4133 415.877 17.392C416.069 17.3707 416.261 17.3387 416.453 17.296C416.645 17.232 416.837 17.1467 417.029 17.04C417.093 16.976 417.2 16.912 417.349 16.848C417.498 16.784 417.669 16.7413 417.861 16.72C418.373 16.6987 418.917 16.6987 419.493 16.72C420.09 16.72 420.57 16.7413 420.933 16.784C421.402 16.848 421.754 16.9973 421.989 17.232C422.224 17.4667 422.341 17.712 422.341 17.968C422.341 18.224 422.213 18.448 421.957 18.64C421.701 18.832 421.317 18.928 420.805 18.928ZM441.367 30C440.471 30 439.692 29.8827 439.031 29.648C438.391 29.4347 438.071 28.8267 438.071 27.824V26.032C438.071 25.584 437.911 25.2747 437.591 25.104C437.292 24.912 436.887 24.7947 436.375 24.752C436.161 24.752 436.001 24.688 435.895 24.56C435.809 24.4107 435.777 24.2613 435.799 24.112C435.82 23.9413 435.884 23.792 435.991 23.664C436.097 23.536 436.257 23.4613 436.47 23.44C436.94 23.44 437.633 23.4613 438.551 23.504C439.468 23.5467 440.321 23.6213 441.111 23.728C441.495 23.7493 442.049 23.76 442.775 23.76C443.5 23.76 444.268 23.7493 445.079 23.728C445.889 23.728 446.657 23.728 447.383 23.728C448.129 23.7067 448.705 23.6853 449.111 23.664L449.271 20.464C448.929 20.464 448.428 20.4747 447.767 20.496C447.127 20.496 446.465 20.496 445.783 20.496C445.1 20.496 444.46 20.5067 443.863 20.528C443.287 20.528 442.892 20.528 442.679 20.528C442.295 20.5707 441.879 20.6667 441.431 20.816C440.983 20.944 440.705 21.0293 440.599 21.072C440.407 21.136 440.183 21.1893 439.927 21.232C439.671 21.2747 439.351 21.2213 438.967 21.072C438.647 20.9653 438.241 20.7947 437.751 20.56C437.26 20.304 436.855 20.048 436.535 19.792C436.236 19.5573 436.119 19.3227 436.183 19.088C436.268 18.8533 436.535 18.768 436.983 18.832C437.601 18.9173 438.295 18.992 439.063 19.056C439.831 19.0987 440.567 19.12 441.271 19.12C441.505 19.1413 441.868 19.1627 442.359 19.184C442.871 19.184 443.425 19.184 444.023 19.184C444.62 19.184 445.228 19.184 445.847 19.184C446.487 19.1627 447.052 19.1307 447.543 19.088C447.863 19.0667 448.129 19.0347 448.343 18.992C448.577 18.9493 448.727 18.9067 448.791 18.864C448.812 18.864 448.844 18.8533 448.887 18.832C448.951 18.8107 449.015 18.7787 449.079 18.736C449.121 18.7147 449.164 18.6933 449.207 18.672C449.271 18.6507 449.335 18.6293 449.399 18.608C449.825 18.5653 450.316 18.5547 450.871 18.576C451.425 18.576 451.873 18.608 452.215 18.672C452.513 18.7573 452.684 18.9067 452.727 19.12C452.769 19.3333 452.759 19.536 452.695 19.728C452.631 19.856 452.567 20.016 452.503 20.208C452.439 20.3787 452.385 20.5493 452.343 20.72L451.575 23.632C451.937 23.6533 452.215 23.728 452.407 23.856C452.599 23.984 452.695 24.144 452.695 24.336C452.695 24.592 452.609 24.7947 452.439 24.944C452.268 25.072 451.873 25.136 451.255 25.136C450.785 25.136 450.06 25.1467 449.079 25.168C448.119 25.168 447.105 25.1787 446.039 25.2C444.972 25.2213 443.959 25.232 442.999 25.232C442.06 25.232 441.388 25.232 440.983 25.232V27.536C440.983 27.8987 441.1 28.144 441.335 28.272C441.569 28.4213 441.868 28.496 442.231 28.496L447.319 28.432C447.703 28.432 448.097 28.4107 448.503 28.368C448.908 28.3253 449.303 28.208 449.687 28.016C449.772 27.952 449.879 27.888 450.007 27.824C450.135 27.7813 450.284 27.7493 450.455 27.728C450.903 27.7067 451.404 27.696 451.959 27.696C452.535 27.7173 452.983 27.7387 453.303 27.76C453.729 27.824 454.049 27.9627 454.263 28.176C454.497 28.4107 454.615 28.656 454.615 28.912C454.593 29.168 454.455 29.392 454.199 29.584C453.964 29.7973 453.591 29.904 453.079 29.904L441.367 30ZM449.975 4.784C449.975 4.272 449.932 3.84533 449.847 3.504C449.761 3.16267 449.58 2.896 449.303 2.704C448.94 2.448 448.513 2.24533 448.023 2.096C447.553 1.94667 447.095 1.82933 446.647 1.744C446.476 1.72267 446.359 1.63733 446.295 1.488C446.231 1.33867 446.22 1.18933 446.263 1.04C446.284 0.890665 446.359 0.762665 446.487 0.655998C446.615 0.527999 446.796 0.463999 447.031 0.463999C447.841 0.485332 448.791 0.570665 449.879 0.719999C450.967 0.847999 451.895 1.02933 452.663 1.264C452.791 1.328 452.897 1.456 452.983 1.648C453.089 1.81867 453.111 2.02133 453.047 2.256C452.919 2.576 452.823 2.90667 452.759 3.248C452.716 3.568 452.695 3.888 452.695 4.208V12.656C452.695 14.32 452.513 15.6213 452.151 16.56C451.809 17.4773 451.436 17.936 451.031 17.936C450.668 17.9573 450.401 17.6587 450.231 17.04C450.081 16.4213 449.996 15.5893 449.975 14.544C449.121 14.7573 448.076 14.992 446.839 15.248C445.623 15.4827 444.375 15.7173 443.095 15.952C441.836 16.1867 440.62 16.4 439.447 16.592C438.295 16.7627 437.356 16.8907 436.631 16.976C436.375 17.0187 436.151 17.0827 435.959 17.168C435.788 17.232 435.607 17.3067 435.415 17.392C435.095 17.52 434.775 17.616 434.455 17.68C434.156 17.7227 433.729 17.68 433.175 17.552C432.833 17.488 432.417 17.3707 431.927 17.2C431.436 17.008 430.892 16.752 430.295 16.432C429.484 16.0053 429.132 15.632 429.239 15.312C429.345 14.992 429.793 14.864 430.583 14.928C430.839 14.9493 431.116 14.9707 431.415 14.992C431.713 15.0133 432.023 15.0347 432.343 15.056C432.663 15.056 432.983 15.0667 433.303 15.088C433.644 15.088 433.975 15.088 434.295 15.088C434.38 15.088 434.465 15.088 434.551 15.088C434.657 15.088 434.764 15.0773 434.871 15.056L434.295 10.128C434.252 9.872 434.188 9.66933 434.103 9.52C434.017 9.37067 433.911 9.24267 433.783 9.136C433.612 9.05067 433.452 8.98667 433.303 8.944C433.175 8.88 432.983 8.82667 432.727 8.784C432.364 8.69866 432.215 8.48533 432.279 8.144C432.343 7.78133 432.588 7.58933 433.015 7.568C433.591 7.52533 434.199 7.536 434.839 7.6C435.5 7.64267 436.033 7.696 436.439 7.76C436.759 7.888 436.961 8.02667 437.047 8.176C437.153 8.32533 437.196 8.48533 437.175 8.656C437.111 8.89067 437.057 9.168 437.015 9.488C436.972 9.78667 436.961 10.128 436.983 10.512L437.047 14.96C437.793 14.896 438.561 14.832 439.351 14.768C440.14 14.6827 440.951 14.5867 441.783 14.48L441.815 9.52C441.815 9.328 441.772 9.15733 441.687 9.008C441.623 8.83733 441.516 8.67733 441.367 8.528C441.196 8.4 440.993 8.29333 440.759 8.208C440.524 8.12267 440.215 8.02667 439.831 7.92C439.468 7.81333 439.329 7.6 439.415 7.28C439.521 6.96 439.777 6.8 440.183 6.8C440.46 6.8 440.791 6.82133 441.175 6.864C441.559 6.88533 441.943 6.90667 442.327 6.928C442.711 6.97067 443.063 7.024 443.383 7.088C443.724 7.13067 443.991 7.184 444.183 7.248C444.481 7.376 444.663 7.51467 444.727 7.664C444.812 7.792 444.833 7.94133 444.791 8.112C444.748 8.21867 444.705 8.34667 444.663 8.496C444.641 8.624 444.609 8.77333 444.567 8.944C444.524 9.09333 444.481 9.264 444.439 9.456C444.396 9.62667 444.375 9.78667 444.375 9.936L443.863 14.224C444.993 14.096 446.081 13.9467 447.127 13.776C448.193 13.6053 449.143 13.4347 449.975 13.264V4.784ZM446.839 5.072C446.839 5.456 446.679 5.72267 446.359 5.872C446.039 6 445.655 6.064 445.207 6.064C445.1 6.064 444.833 6.064 444.407 6.064C443.98 6.064 443.5 6.064 442.967 6.064C442.433 6.064 441.889 6.064 441.335 6.064C440.78 6.064 440.321 6.064 439.959 6.064C439.596 6.08533 439.276 6.10667 438.999 6.128C438.721 6.128 438.465 6.13867 438.231 6.16C437.975 6.18133 437.74 6.20267 437.527 6.224C437.335 6.24533 437.132 6.256 436.919 6.256C436.684 6.27733 436.471 6.33066 436.279 6.416C436.087 6.50133 435.895 6.58667 435.703 6.672C435.404 6.8 435.073 6.88533 434.711 6.928C434.369 6.94933 433.9 6.864 433.303 6.672C433.004 6.608 432.599 6.48 432.087 6.288C431.596 6.07467 431.223 5.872 430.967 5.68C430.412 5.33867 430.167 5.02933 430.231 4.752C430.295 4.45333 430.572 4.336 431.062 4.4C431.852 4.464 432.641 4.50667 433.431 4.528C434.22 4.54933 435.255 4.56 436.535 4.56C437.111 4.56 437.751 4.56 438.455 4.56C439.159 4.56 439.799 4.528 440.375 4.464C440.439 4.464 440.513 4.45333 440.599 4.432C440.684 4.38933 440.769 4.34667 440.855 4.304C440.961 4.28267 441.047 4.26133 441.111 4.24C441.175 4.19733 441.228 4.16533 441.271 4.144C441.356 4.12267 441.431 4.10133 441.495 4.08C441.58 4.05866 441.655 4.03733 441.719 4.016C441.783 3.99467 441.847 3.984 441.911 3.984C441.975 3.96267 442.039 3.94133 442.103 3.92C442.679 3.856 443.223 3.83467 443.735 3.856C444.268 3.856 444.812 3.888 445.367 3.952C445.772 4.016 446.113 4.144 446.391 4.336C446.689 4.50667 446.839 4.752 446.839 5.072ZM459.816 9.104C459.581 9.104 459.4 9.072 459.272 9.008C459.144 8.944 459.059 8.79467 459.016 8.56C458.952 8.02667 458.888 7.51466 458.824 7.024C458.781 6.53333 458.728 6.05333 458.664 5.584C458.6 5.11467 458.536 4.66667 458.472 4.24C458.408 3.792 458.355 3.344 458.312 2.896C458.248 2.40533 458.333 2.07467 458.568 1.904C458.824 1.712 459.229 1.616 459.784 1.616C460.317 1.616 460.712 1.712 460.968 1.904C461.224 2.07467 461.32 2.40533 461.256 2.896C461.192 3.344 461.128 3.792 461.064 4.24C461.021 4.66667 460.979 5.11467 460.936 5.584C460.872 6.05333 460.808 6.53333 460.744 7.024C460.701 7.51466 460.659 8.02667 460.616 8.56C460.552 8.79467 460.456 8.944 460.328 9.008C460.2 9.072 460.029 9.104 459.816 9.104ZM463.88 9.104C463.645 9.104 463.464 9.072 463.336 9.008C463.208 8.944 463.123 8.79467 463.08 8.56C463.016 8.02667 462.952 7.51466 462.888 7.024C462.845 6.53333 462.803 6.05333 462.76 5.584C462.696 5.11467 462.632 4.66667 462.568 4.24C462.525 3.792 462.483 3.344 462.44 2.896C462.376 2.40533 462.461 2.07467 462.696 1.904C462.952 1.712 463.357 1.616 463.912 1.616C464.445 1.616 464.84 1.712 465.096 1.904C465.352 2.07467 465.448 2.40533 465.384 2.896C465.32 3.344 465.256 3.792 465.192 4.24C465.149 4.66667 465.096 5.11467 465.032 5.584C464.968 6.05333 464.904 6.53333 464.84 7.024C464.776 7.51466 464.723 8.02667 464.68 8.56C464.616 8.79467 464.52 8.944 464.392 9.008C464.264 9.072 464.093 9.104 463.88 9.104Z" fill="white"/>
</svg>
